####
#
# OBJ File Generated by Meshlab
#
####
# Object link1.obj
#
# Vertices: 198
# Faces: 300
#
####
vn 0.974346 -0.083507 0.208990
v 0.053515 -0.062246 0.012661
vn 0.923244 -0.087802 0.374047
v 0.051375 -0.063873 0.019532
vn 0.943263 -0.194031 0.269458
v 0.048278 -0.090398 0.013883
vn -0.033823 0.955562 0.292843
v -0.005730 -0.000489 0.054943
vn -0.196814 -0.085052 0.976745
v -0.008659 -0.064251 0.054435
vn 0.002006 -0.089248 0.996007
v -0.001065 -0.065471 0.054973
vn 0.000055 0.000135 -1.000000
v 0.054382 0.008925 -0.191997
vn 0.926700 0.375614 0.011840
v 0.051739 0.019267 -0.119399
vn 0.953965 0.285006 0.093389
v 0.054883 -0.000573 0.005949
vn -0.000002 -0.000001 -1.000000
v 0.023176 -0.050140 -0.192000
vn 0.287874 -0.916908 -0.276420
v 0.017859 -0.124397 -0.016615
vn -0.000001 -0.000002 -1.000000
v 0.007734 -0.054573 -0.192000
vn 0.435830 -0.088032 0.895713
v 0.024036 -0.064734 0.049546
vn 0.187145 0.942735 0.276093
v 0.032229 -0.000468 0.045079
vn 0.070970 0.954211 0.290595
v 0.012128 -0.000504 0.053903
vn -0.373634 -0.895162 -0.243070
v -0.022482 -0.123341 -0.014598
vn -0.475277 -0.834106 -0.279962
v -0.028668 -0.119668 -0.016316
vn -0.000039 -0.000010 -1.000000
v -0.026108 -0.048685 -0.192000
vn -0.298552 0.920120 0.253467
v -0.042252 -0.000480 0.035591
vn -0.495974 0.845318 0.198612
v -0.050318 -0.000497 0.022466
vn -0.780352 -0.084339 0.619627
v -0.043082 -0.063860 0.034509
vn 0.714233 -0.666682 -0.213089
v 0.042634 -0.109893 -0.012449
vn 0.565816 -0.786903 -0.246245
v 0.034727 -0.116294 -0.014648
vn 0.000017 0.000020 -1.000000
v 0.037113 -0.040731 -0.192000
vn 0.009496 0.977498 0.210732
v 0.000198 0.054921 -0.125178
vn 0.317380 0.939711 0.127332
v 0.017598 0.052188 -0.126655
vn 0.155840 0.981262 0.113309
v 0.008945 0.054262 -0.126225
vn -0.736339 -0.649587 0.189318
v -0.044899 -0.107411 0.012099
vn -0.941887 -0.190321 0.276817
v -0.049066 -0.088310 0.012652
vn -0.980109 -0.180022 0.083537
v -0.051902 -0.080543 0.005154
vn -0.703240 -0.703999 0.099192
v -0.042666 -0.111290 0.006135
vn -0.541608 -0.834007 0.105319
v -0.032844 -0.119203 0.007786
vn -0.629041 -0.735482 0.251740
v -0.038870 -0.112925 0.014468
vn 0.089441 -0.938829 -0.332568
v 0.007705 -0.125795 -0.019477
vn 0.205267 -0.117264 0.971656
v 0.009926 -0.064837 0.054230
vn -0.372538 -0.101007 0.922504
v -0.020955 -0.064622 0.050931
vn -0.275005 -0.190596 0.942362
v -0.014252 -0.084755 0.049507
vn -0.452569 -0.197632 0.869553
v -0.022960 -0.085024 0.046110
vn -0.893438 -0.120807 0.432636
v -0.049317 -0.064360 0.024332
vn -0.674856 -0.646194 0.356375
v -0.041507 -0.107025 0.021371
vn -0.137712 -0.938568 -0.316427
v -0.008485 -0.125357 -0.020504
vn 0.000002 0.000000 -1.000000
v -0.008000 -0.054700 -0.192000
vn -0.134920 0.949284 0.284001
v -0.025731 -0.000521 0.049162
vn -0.598530 0.796582 0.084963
v -0.033310 0.043874 -0.126128
vn -0.920552 0.374137 0.112274
v -0.054768 -0.000602 0.007517
vn -0.966700 -0.079023 0.243406
v -0.053198 -0.062031 0.014282
vn -0.967530 0.252621 0.008297
v -0.053405 0.013622 -0.118476
vn -0.000224 0.000092 -1.000000
v -0.054942 0.004026 -0.192000
vn -0.996263 -0.074056 0.044452
v -0.054987 -0.060276 0.002945
vn 0.835997 0.001156 0.548733
v 0.046016 -0.000517 0.030428
vn 0.945588 0.000012 0.325368
v 0.051877 -0.000502 0.018582
vn 0.495154 0.862594 0.103702
v 0.028025 0.047407 -0.126459
vn 0.000016 0.000165 -1.000000
v 0.055161 -0.003628 -0.192004
vn 0.994993 -0.079711 0.060292
v 0.054953 -0.060668 0.003564
vn 0.000005 -0.000005 -1.000000
v -0.000355 0.055192 -0.192000
vn 0.000004 -0.000005 -1.000000
v 0.012202 0.053703 -0.192000
vn 0.075980 -0.632477 0.770844
v 0.004312 -0.107445 0.046231
vn -0.103609 -0.209898 0.972218
v -0.005865 -0.092055 0.049737
vn -0.073040 -0.655362 0.751775
v -0.004323 -0.107417 0.046153
vn -0.136971 -0.952962 0.270374
v -0.008265 -0.126733 0.016201
vn -0.100850 -0.986643 0.127925
v -0.005769 -0.128742 0.007856
vn 0.071444 -0.974713 0.211732
v 0.004204 -0.127918 0.013660
vn 0.054258 -0.916144 0.397160
v 0.003928 -0.125091 0.022594
vn -0.165435 -0.882966 0.439319
v -0.011212 -0.122478 0.026151
vn -0.588393 -0.084049 0.804195
v -0.031829 -0.064068 0.045033
vn -0.471678 -0.853142 0.222864
v -0.028280 -0.120773 0.013227
vn -0.317261 -0.938290 0.137683
v -0.019273 -0.125821 0.008008
vn -0.672832 -0.737879 -0.053211
v -0.040768 -0.113565 -0.003566
vn -0.972045 -0.234440 -0.012857
v -0.046546 -0.107219 -0.000318
vn 0.000020 0.000075 -1.000000
v -0.053668 -0.013207 -0.192003
vn -0.000039 -0.000086 -1.000000
v 0.049622 -0.024777 -0.191999
vn -0.644210 -0.194546 0.739693
v -0.034037 -0.083714 0.038941
vn -0.513386 -0.856360 -0.055524
v -0.030923 -0.120931 -0.002243
vn -0.379658 -0.924946 -0.018317
v -0.022892 -0.125006 -0.000735
vn -0.567882 -0.793718 -0.217995
v -0.033893 -0.117564 -0.012558
vn -0.257759 -0.952707 -0.160966
v -0.015549 -0.126569 -0.010424
vn -0.000062 0.000036 -1.000000
v -0.052335 0.017523 -0.192000
vn -0.445237 0.888424 0.111659
v -0.025424 0.048832 -0.126658
vn 0.979315 -0.186260 0.079053
v 0.050649 -0.087687 0.003659
vn 0.000000 0.000016 -1.000000
v 0.044789 0.032345 -0.192000
vn 0.000003 0.000011 -1.000000
v 0.034292 0.043170 -0.192000
vn 0.677642 0.731870 0.071887
v 0.037478 0.040467 -0.125702
vn 0.725073 -0.687033 0.047487
v 0.046444 -0.107388 0.000104
vn 0.668478 -0.732519 0.128654
v 0.040514 -0.113037 0.008921
vn 0.625159 -0.777343 -0.070098
v 0.037484 -0.116272 -0.003615
vn 0.786859 -0.610672 -0.089068
v 0.045459 -0.108458 -0.005703
vn -0.000016 -0.000135 -1.000000
v 0.051823 0.018800 -0.192000
vn 0.822295 0.567547 0.041487
v 0.045560 0.030945 -0.123597
vn 0.298141 -0.952994 -0.053988
v 0.017871 -0.126682 -0.004769
vn 0.494516 -0.867653 0.051307
v 0.030508 -0.121220 0.003392
vn 0.360096 -0.924927 0.121826
v 0.020677 -0.125230 0.008339
vn 0.070541 -0.997285 0.021140
v 0.004878 -0.129373 0.000947
vn 0.144988 -0.976919 -0.156866
v 0.008944 -0.128164 -0.009181
vn 0.219797 -0.969960 0.104245
v 0.013466 -0.127783 0.005269
vn -0.173152 -0.984894 0.001521
v -0.011272 -0.128513 0.000250
vn 0.268660 -0.918992 0.288575
v 0.017385 -0.124411 0.017312
vn -0.054071 -0.851775 0.521111
v -0.002744 -0.120577 0.031461
vn 0.056039 -0.691089 0.720594
v 0.003266 -0.110954 0.043455
vn 0.062631 -0.810816 0.581940
v 0.003911 -0.118217 0.034982
vn 0.214942 -0.718803 0.661153
v 0.011679 -0.113173 0.039549
vn -0.137697 -0.753354 0.643037
v -0.008900 -0.113838 0.039611
vn -0.295895 -0.227819 0.927655
v -0.014551 -0.107379 0.044191
vn -0.307611 -0.710432 0.632979
v -0.018167 -0.111932 0.038370
vn -0.302324 -0.818756 0.488098
v -0.018039 -0.118665 0.029566
vn -0.467985 -0.811142 0.350770
v -0.028266 -0.118307 0.020676
vn -0.320606 -0.896898 0.304607
v -0.019234 -0.123633 0.017520
vn -0.438224 -0.734211 0.518550
v -0.025502 -0.114408 0.030829
vn -0.583846 -0.705215 0.402237
v -0.035215 -0.111623 0.024391
vn -0.703676 -0.677680 -0.213519
v -0.042379 -0.109673 -0.013965
vn 0.000173 -0.000009 -1.000000
v -0.042942 -0.035020 -0.191999
vn 0.433326 -0.855177 -0.284433
v 0.025412 -0.120945 -0.017632
vn 0.453400 -0.880500 -0.138378
v 0.026663 -0.122854 -0.007720
vn -0.402067 -0.661752 0.632793
v -0.024877 -0.107484 0.039131
vn 0.068445 -0.199557 0.977493
v 0.003794 -0.089031 0.050524
vn -0.833875 -0.532288 -0.146020
v -0.045587 -0.107758 -0.007254
vn -0.000025 0.000038 -1.000000
v -0.012079 0.053723 -0.192000
vn -0.160949 0.976845 0.140958
v -0.008857 0.054245 -0.126016
vn -0.297817 0.949008 0.103382
v -0.015560 0.052799 -0.126596
vn -0.000061 0.000090 -1.000000
v -0.021549 0.050744 -0.192000
vn 0.845680 -0.108197 0.522608
v 0.046528 -0.064680 0.029295
vn 0.876072 -0.198369 0.439486
v 0.044728 -0.091145 0.022528
vn 0.000008 -0.000014 -1.000000
v 0.022913 0.050151 -0.192000
vn 0.388383 -0.835335 0.389068
v 0.021324 -0.120405 0.023699
vn 0.478432 -0.847712 0.229102
v 0.029307 -0.120242 0.013105
vn 0.575755 -0.747349 0.331627
v 0.034472 -0.114389 0.020296
vn -0.715143 -0.221305 0.663019
v -0.033995 -0.107523 0.031677
vn 0.730994 -0.088102 0.676672
v 0.040594 -0.064406 0.037127
vn 0.776357 -0.198697 0.598156
v 0.040062 -0.090084 0.030405
vn 0.619099 -0.668295 0.412430
v 0.039319 -0.107371 0.024663
vn 0.598506 -0.089188 0.796138
v 0.032858 -0.064327 0.044151
vn 0.608073 -0.194042 0.769802
v 0.032316 -0.085449 0.039941
vn 0.393703 -0.194576 0.898409
v 0.021351 -0.084324 0.047018
vn 0.345933 -0.658527 0.668335
v 0.022662 -0.107510 0.040512
vn 0.370795 -0.707772 0.601306
v 0.021754 -0.111272 0.037267
vn 0.694022 -0.222404 0.684741
v 0.033284 -0.107291 0.032546
vn -0.000808 -0.973220 -0.229876
v 0.000052 -0.127835 -0.014335
vn -0.791734 -0.195401 0.578771
v -0.041334 -0.084538 0.030631
vn 0.000036 -0.000007 -1.000000
v -0.030773 0.045636 -0.192000
vn 0.682295 -0.676134 0.278059
v 0.042932 -0.107418 0.017665
vn 0.737837 -0.657761 0.151483
v 0.045443 -0.107338 0.009659
vn -0.013229 -0.996973 -0.076613
v -0.000252 -0.129371 -0.004151
vn 0.230590 -0.832619 0.503561
v 0.013820 -0.119368 0.030524
vn 0.365560 -0.778205 0.510650
v 0.021620 -0.116378 0.030633
vn 0.220645 -0.207023 0.953130
v 0.011304 -0.091072 0.048954
vn 0.501157 -0.723586 0.474621
v 0.030569 -0.112895 0.028145
vn 0.000133 -0.000104 -1.000000
v -0.037875 0.040031 -0.192000
vn -0.906301 0.422275 0.017393
v -0.050133 0.022744 -0.122074
vn 0.203331 -0.654952 0.727801
v 0.013692 -0.107199 0.044435
vn -0.127573 -0.979646 -0.154978
v -0.008243 -0.128335 -0.008603
vn -0.727845 0.683970 0.049260
v -0.039695 0.038136 -0.125178
vn -0.000002 0.000016 -1.000000
v -0.045885 0.030551 -0.192000
vn -0.825236 0.563377 0.039891
v -0.045798 0.030584 -0.123480
vn -0.097964 0.001709 0.995189
v -0.005730 -0.000489 0.054943
vn 0.985164 0.171602 0.002368
v 0.054382 0.008925 -0.191997
vn 0.412515 -0.841612 -0.348597
v 0.023176 -0.050140 -0.192000
vn 0.165195 -0.911440 -0.376813
v 0.007734 -0.054573 -0.192000
vn 0.588378 0.002799 0.808581
v 0.032229 -0.000468 0.045079
vn 0.213191 0.003498 0.977004
v 0.012128 -0.000504 0.053903
vn -0.464623 -0.818035 -0.339035
v -0.026108 -0.048685 -0.192000
vn -0.730791 0.003171 0.682594
v -0.042252 -0.000480 0.035591
vn -0.904992 0.001735 0.425425
v -0.050318 -0.000497 0.022466
vn 0.651709 -0.699798 -0.292504
v 0.037113 -0.040731 -0.192000
vn -0.954676 -0.215950 0.204842
v -0.044899 -0.107411 0.012099
vn -0.872656 -0.205837 0.442835
v -0.041507 -0.107025 0.021371
vn -0.143812 -0.914689 -0.377705
v -0.008000 -0.054700 -0.192000
vn -0.422056 0.002693 0.906566
v -0.025731 -0.000521 0.049162
vn -0.998024 0.062540 -0.006024
v -0.054942 0.004026 -0.192000
vn 0.373605 0.897479 0.234416
v 0.046016 -0.000517 0.030428
vn 0.554308 0.812709 0.179573
v 0.051877 -0.000502 0.018582
vn 0.993164 -0.109702 -0.039893
v 0.055161 -0.003628 -0.192004
vn -0.001454 0.999999 0.000929
v -0.000355 0.055192 -0.192000
vn 0.222660 0.974896 -0.001111
v 0.012202 0.053703 -0.192000
vn 0.078473 -0.229768 0.970077
v 0.004312 -0.107445 0.046231
vn -0.096962 -0.235372 0.967057
v -0.004323 -0.107417 0.046153
vn -0.761703 -0.647639 0.019303
v -0.046546 -0.107219 -0.000318
vn -0.969392 -0.230724 -0.083936
v -0.053668 -0.013207 -0.192003
vn 0.887546 -0.427097 -0.172772
v 0.049622 -0.024777 -0.191999
vn -0.945330 0.326112 -0.001625
v -0.052335 0.017523 -0.192000
vn 0.819640 0.572879 -0.000953
v 0.044789 0.032345 -0.192000
vn 0.614146 0.789189 -0.002273
v 0.034292 0.043170 -0.192000
vn 0.969469 -0.241883 -0.040266
v 0.046444 -0.107388 0.000104
vn 0.933664 0.358149 -0.001229
v 0.051823 0.018800 -0.192000
vn -0.239464 -0.659872 0.712198
v -0.014551 -0.107379 0.044191
vn -0.739274 -0.621305 -0.259720
v -0.042942 -0.035020 -0.191999
vn -0.532278 -0.224715 0.816201
v -0.024877 -0.107484 0.039131
vn -0.212453 0.977171 -0.000569
v -0.012079 0.053723 -0.192000
vn -0.387209 0.921992 -0.000200
v -0.021549 0.050744 -0.192000
vn 0.419991 0.907528 -0.001191
v 0.022913 0.050151 -0.192000
vn -0.554467 -0.658650 0.508671
v -0.033995 -0.107523 0.031677
vn 0.823721 -0.223041 0.521284
v 0.039319 -0.107371 0.024663
vn 0.497534 -0.224441 0.837906
v 0.022662 -0.107510 0.040512
vn 0.513508 -0.658371 0.550324
v 0.033284 -0.107291 0.032546
vn -0.546617 0.837382 -0.001280
v -0.030773 0.045636 -0.192000
vn 0.904017 -0.221881 0.365406
v 0.042932 -0.107418 0.017665
vn 0.957334 -0.219633 0.187808
v 0.045443 -0.107338 0.009659
vn -0.686251 0.727364 -0.000827
v -0.037875 0.040031 -0.192000
vn 0.298379 -0.227420 0.926957
v 0.013692 -0.107199 0.044435
vn -0.832836 0.553518 -0.001473
v -0.045885 0.030551 -0.192000
# 198 vertices, 0 vertices normals

f 1//1 2//2 3//3
f 153//153 5//5 6//6
f 154//154 8//8 9//9
f 155//155 11//11 156//156
f 13//13 157//157 158//158
f 16//16 17//17 159//159
f 160//160 161//161 21//21
f 22//22 23//23 162//162
f 25//25 15//15 14//14
f 26//26 27//27 14//14
f 163//163 29//29 30//30
f 31//31 32//32 33//33
f 11//11 34//34 156//156
f 35//35 13//13 158//158
f 36//36 37//37 5//5
f 38//38 37//37 36//36
f 161//161 39//39 21//21
f 164//164 29//29 163//163
f 34//34 41//41 165//165
f 34//34 165//165 156//156
f 16//16 159//159 165//165
f 41//41 16//16 165//165
f 166//166 5//5 153//153
f 166//166 36//36 5//5
f 4//4 15//15 25//25
f 20//20 44//44 45//45
f 45//45 46//46 161//161
f 47//47 167//167 45//45
f 49//49 45//45 167//167
f 168//168 169//169 52//52
f 170//170 9//9 54//54
f 27//27 25//25 14//14
f 170//170 154//154 9//9
f 27//27 171//171 25//25
f 27//27 26//26 172//172
f 173//173 58//58 174//174
f 60//60 61//61 62//62
f 63//63 64//64 60//60
f 160//160 65//65 166//166
f 65//65 160//160 21//21
f 32//32 66//66 33//33
f 67//67 66//66 32//32
f 68//68 31//31 175//175
f 30//30 176//176 69//69
f 23//23 155//155 162//162
f 22//22 162//162 177//177
f 6//6 5//5 58//58
f 58//58 5//5 37//37
f 176//176 49//49 167//167
f 72//72 65//65 21//21
f 73//73 16//16 74//74
f 73//73 74//74 32//32
f 16//16 75//75 17//17
f 16//16 41//41 76//76
f 178//178 167//167 47//47
f 44//44 20//20 78//78
f 170//170 54//54 79//79
f 179//179 180//180 82//82
f 181//181 177//177 170//170
f 84//84 85//85 86//86
f 1//1 3//3 79//79
f 182//182 8//8 154//154
f 82//82 9//9 88//88
f 82//82 180//180 52//52
f 89//89 90//90 91//91
f 92//92 93//93 89//89
f 92//92 89//89 94//94
f 95//95 92//92 61//61
f 61//61 92//92 62//62
f 94//94 96//96 62//62
f 63//63 62//62 96//96
f 97//97 64//64 63//63
f 98//98 99//99 100//100
f 101//101 183//183 103//103
f 97//97 63//63 99//99
f 64//64 101//101 104//104
f 97//97 101//101 64//64
f 104//104 105//105 106//106
f 104//104 107//107 105//105
f 105//105 108//108 33//33
f 105//105 33//33 66//66
f 106//106 64//64 104//104
f 105//105 66//66 106//106
f 106//106 66//66 67//67
f 69//69 163//163 30//30
f 109//109 184//184 75//75
f 11//11 155//155 111//111
f 86//86 22//22 177//177
f 11//11 112//112 89//89
f 185//185 102//102 38//38
f 37//37 38//38 102//102
f 65//65 38//38 36//36
f 65//65 36//36 166//166
f 114//114 6//6 58//58
f 45//45 49//49 46//46
f 39//39 161//161 46//46
f 61//61 60//60 67//67
f 95//95 61//61 67//67
f 95//95 67//67 74//74
f 115//115 176//176 184//184
f 171//171 186//186 117//117
f 25//25 43//43 4//4
f 117//117 43//43 25//25
f 117//117 19//19 43//43
f 78//78 118//118 187//187
f 179//179 8//8 182//182
f 8//8 88//88 9//9
f 2//2 51//51 50//50
f 120//120 121//121 2//2
f 181//181 170//170 79//79
f 84//84 86//86 83//83
f 22//22 86//86 85//85
f 22//22 85//85 23//23
f 90//90 85//85 84//84
f 88//88 179//179 82//82
f 188//188 26//26 52//52
f 26//26 168//168 52//52
f 188//188 172//172 26//26
f 171//171 27//27 172//172
f 94//94 89//89 91//91
f 96//96 94//94 91//91
f 123//123 124//124 125//125
f 103//103 104//104 101//101
f 103//103 113//113 107//107
f 113//113 189//189 107//107
f 58//58 102//102 174//174
f 57//57 59//59 98//98
f 58//58 173//173 114//114
f 101//101 99//99 98//98
f 107//107 104//104 103//103
f 60//60 62//62 63//63
f 33//33 28//28 31//31
f 75//75 159//159 17//17
f 75//75 184//184 159//159
f 68//68 32//32 31//31
f 111//111 155//155 23//23
f 127//127 120//120 50//50
f 127//127 50//50 157//157
f 128//128 190//190 121//121
f 6//6 158//158 153//153
f 6//6 35//35 158//158
f 35//35 6//6 114//114
f 13//13 130//130 157//157
f 131//131 132//132 191//191
f 134//134 192//192 133//133
f 46//46 49//49 30//30
f 30//30 49//49 176//176
f 189//189 108//108 107//107
f 136//136 41//41 34//34
f 74//74 67//67 32//32
f 106//106 60//60 64//64
f 75//75 16//16 73//73
f 109//109 115//115 184//184
f 115//115 69//69 176//176
f 115//115 109//109 68//68
f 137//137 72//72 21//21
f 25//25 171//171 117//117
f 118//118 117//117 186//186
f 19//19 117//117 118//118
f 78//78 193//193 44//44
f 78//78 19//19 118//118
f 20//20 19//19 78//78
f 120//120 2//2 50//50
f 3//3 121//121 194//194
f 2//2 121//121 3//3
f 195//195 79//79 3//3
f 82//82 169//169 9//9
f 181//181 86//86 177//177
f 1//1 79//79 54//54
f 195//195 181//181 79//79
f 83//83 140//140 84//84
f 180//180 188//188 52//52
f 169//169 82//82 52//52
f 62//62 92//92 94//94
f 92//92 141//141 93//93
f 96//96 124//124 123//123
f 99//99 63//63 142//142
f 113//113 103//103 183//183
f 142//142 143//143 134//134
f 134//134 100//100 142//142
f 114//114 173//173 144//144
f 101//101 59//59 183//183
f 97//97 99//99 101//101
f 126//126 185//185 72//72
f 108//108 105//105 107//107
f 40//40 33//33 108//108
f 33//33 40//40 28//28
f 31//31 28//28 175//175
f 175//175 115//115 68//68
f 75//75 68//68 109//109
f 90//90 124//124 91//91
f 127//127 131//131 128//128
f 131//131 135//135 128//128
f 100//100 134//134 133//133
f 131//131 130//130 13//13
f 130//130 127//127 157//157
f 123//123 125//125 145//145
f 123//123 145//145 143//143
f 134//134 145//145 192//192
f 58//58 37//37 102//102
f 72//72 38//38 65//65
f 29//29 164//164 39//39
f 39//39 46//46 29//29
f 137//137 39//39 164//164
f 137//137 126//126 72//72
f 46//46 30//30 29//29
f 136//136 34//34 93//93
f 76//76 95//95 74//74
f 106//106 67//67 60//60
f 193//193 196//196 44//44
f 147//147 47//47 45//45
f 118//118 186//186 187//187
f 179//179 88//88 8//8
f 3//3 194//194 195//195
f 125//125 84//84 139//139
f 129//129 125//125 139//139
f 26//26 14//14 168//168
f 96//96 91//91 124//124
f 142//142 96//96 123//123
f 100//100 99//99 142//142
f 72//72 185//185 38//38
f 143//143 145//145 134//134
f 142//142 123//123 143//143
f 144//144 173//173 197//197
f 101//101 98//98 59//59
f 189//189 40//40 108//108
f 73//73 68//68 75//75
f 73//73 32//32 68//68
f 11//11 111//111 112//112
f 90//90 112//112 85//85
f 112//112 90//90 89//89
f 112//112 111//111 23//23
f 124//124 84//84 125//125
f 127//127 128//128 120//120
f 190//190 128//128 135//135
f 13//13 132//132 131//131
f 130//130 131//131 127//127
f 131//131 191//191 135//135
f 137//137 21//21 39//39
f 41//41 149//149 76//76
f 74//74 16//16 76//76
f 187//187 193//193 78//78
f 150//150 198//198 152//152
f 152//152 147//147 45//45
f 140//140 139//139 84//84
f 1//1 54//54 9//9
f 141//141 92//92 95//95
f 76//76 149//149 95//95
f 136//136 93//93 141//141
f 132//132 13//13 35//35
f 148//148 98//98 100//100
f 148//148 57//57 98//98
f 164//164 126//126 137//137
f 112//112 23//23 85//85
f 90//90 84//84 124//124
f 197//197 191//191 132//132
f 144//144 197//197 132//132
f 136//136 149//149 41//41
f 93//93 11//11 89//89
f 11//11 93//93 34//34
f 44//44 196//196 150//150
f 44//44 150//150 45//45
f 196//196 198//198 150//150
f 45//45 150//150 152//152
f 147//147 198//198 178//178
f 190//190 194//194 121//121
f 128//128 121//121 120//120
f 145//145 125//125 129//129
f 129//129 192//192 145//145
f 1//1 9//9 51//51
f 51//51 2//2 1//1
f 95//95 149//149 141//141
f 142//142 63//63 96//96
f 100//100 133//133 148//148
f 132//132 35//35 144//144
f 178//178 47//47 147//147
f 136//136 141//141 149//149
f 144//144 35//35 114//114
f 147//147 152//152 198//198
f 71//71 24//24 151//151
f 151//151 56//56 122//122
f 12//12 42//42 151//151
f 7//7 53//53 151//151
f 18//18 110//110 151//151
f 48//48 77//77 151//151
f 151//151 24//24 10//10
f 42//42 18//18 151//151
f 146//146 138//138 151//151
f 151//151 80//80 87//87
f 81//81 80//80 151//151
f 53//53 71//71 151//151
f 151//151 10//10 12//12
f 151//151 110//110 70//70
f 151//151 55//55 56//56
f 119//119 116//116 151//151
f 151//151 87//87 7//7
f 116//116 55//55 151//151
f 122//122 81//81 151//151
f 70//70 48//48 151//151
f 151//151 138//138 119//119
# 300 faces, 0 coords texture

# End of File
