####
#
# OBJ File Generated by Meshlab
#
####
# Object link5.obj
#
# Vertices: 206
# Faces: 300
#
####
vn -0.297555 0.228111 -0.927052
v -0.043130 0.034598 -0.258994
vn -0.861601 0.493534 -0.118605
v -0.049491 0.104632 -0.007973
vn -0.579070 0.786936 -0.213095
v -0.027600 0.088409 -0.173066
vn -0.603190 -0.049825 0.796040
v -0.029237 0.015796 0.038075
vn -0.806145 -0.044397 0.590051
v -0.038999 0.015812 0.028229
vn -0.131940 -0.973067 0.189030
v -0.007860 -0.051413 -0.216166
vn 0.016583 0.088848 -0.995907
v 0.011487 0.054236 -0.258996
vn -0.021428 0.125032 -0.991921
v -0.007970 0.054581 -0.259003
vn 0.010563 0.924340 -0.381423
v -0.000707 0.085375 -0.198830
vn 0.547336 -0.818752 0.173404
v 0.045218 0.015812 0.016179
vn 0.695640 0.594138 0.403838
v 0.045246 0.101018 0.024398
vn 0.325909 -0.920392 0.216013
v 0.040147 0.015803 0.026312
vn 0.051751 0.017367 -0.998509
v 0.052580 0.017422 -0.259000
vn 0.796411 0.597002 0.096524
v 0.050526 0.103338 0.003046
vn 0.052990 0.000259 -0.998595
v 0.055083 -0.002321 -0.259005
vn 0.934968 -0.338380 0.106459
v 0.047668 0.015861 0.005726
vn 0.201276 -0.950917 0.235040
v 0.031288 0.015806 0.036584
vn 0.452819 0.543101 0.707105
v 0.030516 0.098952 0.042053
vn 0.313814 0.522169 0.793007
v 0.020163 0.098248 0.048192
vn -0.759059 0.605458 0.239270
v -0.049008 0.101881 0.014702
vn -0.763824 0.642687 0.059382
v -0.050406 0.103940 0.000262
vn -0.914549 -0.389074 0.110549
v -0.047662 0.015861 0.005784
vn -0.894877 -0.039178 0.444591
v -0.045413 0.101011 0.023883
vn -0.803349 -0.041248 0.594078
v -0.040353 0.100177 0.032255
vn -0.644037 0.627781 0.437159
v -0.038660 0.108339 0.024701
vn -0.513779 0.226366 -0.827520
v -0.050298 0.022377 -0.259002
vn -0.397357 -0.904076 0.157332
v -0.023453 -0.047983 -0.221382
vn -0.935827 -0.039506 0.350239
v -0.045252 0.015805 0.016002
vn 0.575383 0.581670 0.574973
v 0.037409 0.099821 0.035842
vn -0.355855 -0.051896 0.933099
v -0.017632 0.015806 0.044786
vn -0.073918 0.498419 0.863779
v -0.004649 0.097802 0.052168
vn -0.297636 0.550990 0.779630
v -0.019825 0.098533 0.048275
vn -0.012657 -0.968588 0.248350
v -0.002655 0.015805 0.047984
vn 0.292432 0.671465 0.680895
v 0.015182 0.116651 0.035517
vn 0.093333 0.966828 0.237764
v 0.010322 0.125617 0.027241
vn 0.146818 0.693362 0.705474
v 0.007445 0.117539 0.037264
vn 0.848747 0.518280 -0.104950
v 0.049514 0.104438 -0.008035
vn 0.047209 0.037208 -0.998192
v 0.043474 0.034016 -0.258998
vn -0.119276 0.921596 -0.369371
v -0.011393 0.084303 -0.199691
vn -0.636486 0.697408 -0.329405
v -0.022230 0.084040 -0.194700
vn -0.601429 0.715764 -0.354916
v -0.026016 0.048977 -0.258996
vn -0.214854 0.969431 0.118492
v -0.015768 0.128209 0.010706
vn -0.382951 0.743200 0.548636
v -0.016435 0.125262 0.025051
vn -0.053662 0.977551 0.203749
v -0.004211 0.128983 0.016533
vn -0.062104 0.753817 0.654143
v -0.002979 0.125747 0.028930
vn -0.523456 0.563882 0.638773
v -0.034141 0.099325 0.039097
vn -0.514969 -0.049405 0.855784
v -0.025397 0.098560 0.045450
vn -0.434650 0.588722 0.681533
v -0.027126 0.105324 0.039382
vn 0.757433 0.631670 0.165195
v 0.044603 0.109300 0.009724
vn 0.968610 -0.033553 0.246312
v 0.048581 0.101810 0.015875
vn 0.065243 0.996682 0.048666
v 0.005702 0.129778 0.007863
vn -0.065242 0.994721 0.079205
v -0.006807 0.129518 0.011324
vn 0.105843 0.981941 0.156810
v 0.008238 0.128888 0.014707
vn 0.393378 0.682970 0.615472
v 0.020267 0.117145 0.032245
vn 0.231553 0.954661 0.187098
v 0.021609 0.124624 0.021486
vn 0.535349 0.816978 -0.214356
v 0.027149 0.088218 -0.175367
vn 0.268652 0.870632 -0.412099
v 0.016970 0.082864 -0.200849
vn 0.037508 0.059194 -0.997542
v 0.030975 0.045755 -0.259001
vn 0.120013 0.922387 -0.367150
v 0.010850 0.085165 -0.197911
vn 0.101168 0.992850 -0.063362
v 0.010180 0.129396 -0.000721
vn 0.237637 0.961513 -0.137919
v 0.018286 0.127374 -0.005254
vn 0.091333 0.979490 -0.179607
v 0.008646 0.128414 -0.009444
vn 0.947729 -0.318426 0.020382
v 0.052146 -0.017477 -0.243011
vn 0.052618 -0.012676 -0.998534
v 0.054317 -0.010114 -0.258986
vn 0.054020 0.569919 0.819923
v 0.002603 0.105303 0.047947
vn 0.227872 0.578291 0.783361
v 0.013170 0.105957 0.045491
vn -0.495576 0.841536 0.214990
v -0.028201 0.123798 0.013646
vn -0.536257 0.843640 -0.026454
v -0.032903 0.122164 0.000226
vn -0.712823 0.683223 0.158395
v -0.041418 0.113500 0.007594
vn -0.180317 0.982804 -0.039766
v -0.014582 0.128709 0.000608
vn -0.036307 0.999010 -0.025690
v -0.004047 0.129904 0.002559
vn -0.216298 0.963387 -0.158430
v -0.016543 0.127324 -0.007896
vn -0.066179 0.985551 -0.155914
v -0.006340 0.129112 -0.006773
vn -0.646849 0.687252 0.330563
v -0.034761 0.116530 0.017193
vn -0.713048 0.628714 0.310292
v -0.043473 0.108215 0.015850
vn -0.544084 0.702299 0.459073
v -0.028435 0.118371 0.023551
vn -0.685993 0.128311 -0.716205
v -0.053972 0.011547 -0.259007
vn 0.147527 -0.051403 0.987721
v 0.008457 0.097855 0.051580
vn 0.095381 -0.964695 0.245491
v 0.014791 0.015774 0.045936
vn -0.251135 -0.954278 0.162129
v -0.014812 -0.050694 -0.219569
vn -0.088057 -0.995480 0.035560
v -0.005146 -0.054597 -0.245451
vn -0.158066 -0.983508 0.087907
v -0.011150 -0.053091 -0.233902
vn -0.209356 -0.977229 0.034554
v -0.011589 -0.053809 -0.248529
vn 0.566854 0.819847 -0.080798
v 0.033069 0.121645 -0.002943
vn 0.362970 0.927534 -0.089066
v 0.024511 0.125729 -0.002052
vn 0.530394 0.843639 0.083392
v 0.031426 0.122907 0.006909
vn 0.702753 0.707330 0.076306
v 0.040191 0.115285 0.003949
vn 0.713214 0.696595 -0.077989
v 0.042523 0.112999 -0.006256
vn -0.137510 0.579567 0.803239
v -0.008002 0.106305 0.046502
vn -0.009784 0.676251 0.736607
v -0.000101 0.117598 0.038153
vn 0.251699 0.966013 0.058877
v 0.018216 0.127911 0.008189
vn 0.402191 0.851946 -0.335307
v 0.023166 0.084957 -0.191089
vn 0.768202 0.639385 0.032455
v 0.047339 0.107777 -0.000015
vn 0.149357 0.953749 -0.260876
v 0.014666 0.089405 -0.183272
vn -0.236062 0.943236 -0.233623
v -0.020300 0.089922 -0.177150
vn 0.000653 -0.106998 -0.994259
v 0.003135 -0.055128 -0.258948
vn -0.019646 -0.995812 0.089291
v -0.001501 -0.054086 -0.234891
vn 0.656550 -0.749020 0.088941
v 0.036992 -0.040836 -0.231671
vn 0.464451 0.599151 0.652153
v 0.026981 0.106874 0.038056
vn 0.365771 0.584605 0.724188
v 0.020798 0.105010 0.043209
vn -0.316141 0.948576 0.016090
v -0.020944 0.127182 0.004685
vn -0.102416 0.957634 -0.269161
v -0.010877 0.089085 -0.186003
vn -0.004118 0.963181 -0.268822
v 0.000367 0.089818 -0.185536
vn -0.325140 0.937130 -0.126777
v -0.023461 0.125996 -0.003386
vn -0.422935 0.675401 0.604118
v -0.021875 0.117390 0.030877
vn -0.542741 0.625258 0.560789
v -0.030896 0.110555 0.031109
vn -0.730385 -0.033279 -0.682224
v -0.055017 -0.004388 -0.258986
vn -0.969375 -0.244473 0.023325
v -0.053213 -0.013911 -0.245524
vn 0.691779 0.668481 0.273083
v 0.041120 0.112056 0.013545
vn 0.599247 0.695465 0.396524
v 0.032510 0.117444 0.019462
vn 0.641629 0.622230 0.448488
v 0.038673 0.107987 0.025256
vn 0.323096 0.939113 0.116943
v 0.026521 0.124106 0.015798
vn -0.150220 0.678360 0.719209
v -0.005993 0.115866 0.039041
vn -0.297146 0.628128 0.719138
v -0.015879 0.111456 0.040196
vn -0.256443 0.709805 0.656059
v -0.013213 0.118951 0.033896
vn 0.183395 -0.962334 0.200699
v 0.009960 -0.050737 -0.214368
vn 0.276420 -0.949173 0.150540
v 0.017403 -0.050181 -0.220985
vn -0.712048 0.700149 -0.052719
v -0.041061 0.114696 -0.004035
vn -0.029130 -0.130760 -0.990986
v -0.011763 -0.053896 -0.259001
vn 0.024250 -0.980261 0.196216
v 0.003435 -0.051526 -0.214300
vn 0.532236 0.654154 0.537408
v 0.029629 0.112933 0.029617
vn 0.900558 -0.433095 0.037738
v 0.048872 -0.025426 -0.239856
vn 0.746708 -0.663745 0.043237
v 0.040819 -0.037129 -0.234122
vn 0.046871 -0.038619 -0.998154
v 0.042926 -0.034475 -0.259000
vn 0.832958 -0.552100 0.036977
v 0.045144 -0.031605 -0.235642
vn 0.040704 -0.053210 -0.997753
v 0.034012 -0.043461 -0.258999
vn 0.016664 -0.089093 -0.995884
v 0.011211 -0.053977 -0.259006
vn 0.194858 -0.980013 0.040072
v 0.012804 -0.053442 -0.244006
vn 0.466174 -0.884154 0.030883
v 0.026756 -0.048162 -0.237477
vn 0.315732 -0.947407 0.052289
v 0.020007 -0.051225 -0.239239
vn 0.031350 -0.069809 -0.997068
v 0.022528 -0.050277 -0.258997
vn 0.545081 -0.836231 0.060037
v 0.031565 -0.045209 -0.234630
vn -0.851413 -0.522418 0.046635
v -0.046071 -0.030231 -0.236400
vn -0.382577 -0.233561 -0.893915
v -0.046492 -0.029710 -0.259049
vn -0.774942 -0.630787 0.039660
v -0.042351 -0.035317 -0.234111
vn -0.915954 -0.400348 0.027397
v -0.049871 -0.023523 -0.241469
vn -0.605202 -0.194888 -0.771848
v -0.052037 -0.018093 -0.259016
vn -0.572871 -0.819416 0.019374
v -0.032165 -0.044844 -0.237578
vn -0.198344 -0.209396 -0.957503
v -0.036886 -0.040848 -0.259013
vn -0.093847 -0.169093 -0.981122
v -0.025513 -0.048914 -0.259017
vn -0.437089 -0.897741 0.054907
v -0.025472 -0.048787 -0.236436
vn -0.563573 -0.817579 0.118113
v -0.031338 -0.044683 -0.227250
vn 0.050580 -0.025188 -0.998402
v 0.048748 -0.025715 -0.259002
vn 0.139261 -0.985797 0.093870
v 0.008180 -0.053460 -0.232618
vn 0.422566 -0.895594 0.139106
v 0.024104 -0.048184 -0.223965
vn 0.552297 -0.822353 0.136762
v 0.031089 -0.044128 -0.223477
vn -0.188037 0.934093 -0.303501
v -0.017817 0.087081 -0.188987
vn -0.143759 -0.098100 -0.984738
v -0.049720 -0.003351 -0.264554
vn -0.221017 0.099013 -0.970231
v -0.049702 0.003472 -0.264544
vn -0.678049 -0.732079 0.065645
v -0.038037 -0.039882 -0.232196
vn -0.328949 -0.944153 0.019189
v -0.019695 -0.051360 -0.242356
vn -0.296683 -0.951486 0.081574
v -0.018435 -0.051272 -0.232533
vn -0.753916 0.607996 -0.248901
v -0.043130 0.034598 -0.258994
vn -0.186654 -0.953564 0.236382
v -0.029237 0.015796 0.038075
vn -0.295128 -0.929512 0.221148
v -0.038999 0.015812 0.028229
vn 0.137481 0.880898 -0.452899
v 0.011487 0.054236 -0.258996
vn -0.133201 0.881000 -0.453978
v -0.007970 0.054581 -0.259003
vn 0.937052 -0.038789 0.347028
v 0.045218 0.015812 0.016179
vn 0.887697 -0.038635 0.458805
v 0.045246 0.101018 0.024398
vn 0.829621 -0.043415 0.556637
v 0.040147 0.015803 0.026312
vn 0.956327 0.279405 -0.085860
v 0.052580 0.017422 -0.259000
vn 0.997096 0.073642 0.019415
v 0.050526 0.103338 0.003046
vn 0.999944 -0.001228 0.010479
v 0.055083 -0.002321 -0.259005
vn 0.614341 -0.050316 0.787435
v 0.031288 0.015806 0.036584
vn 0.594792 -0.047259 0.802490
v 0.030516 0.098952 0.042053
vn 0.430692 -0.050971 0.901058
v 0.020163 0.098248 0.048192
vn -0.972793 -0.033337 0.229263
v -0.049008 0.101881 0.014702
vn -0.997424 0.071345 0.007449
v -0.050406 0.103940 0.000262
vn -0.706476 0.587274 0.394969
v -0.045413 0.101011 0.023883
vn -0.616090 0.587195 0.525009
v -0.040353 0.100177 0.032255
vn -0.901658 0.411800 -0.132036
v -0.050298 0.022377 -0.259002
vn -0.516569 -0.837110 0.180009
v -0.045252 0.015805 0.016002
vn 0.754981 -0.043055 0.654332
v 0.037409 0.099821 0.035842
vn -0.080937 -0.965948 0.245753
v -0.017632 0.015806 0.044786
vn -0.139151 -0.051159 0.988949
v -0.004649 0.097802 0.052168
vn -0.353152 -0.048764 0.934294
v -0.019825 0.098533 0.048275
vn -0.015893 -0.055185 0.998350
v -0.002655 0.015805 0.047984
vn 0.248878 0.745594 0.618182
v 0.010322 0.125617 0.027241
vn 0.766913 0.594965 -0.240544
v 0.043474 0.034016 -0.258998
vn -0.258142 0.896722 -0.359517
v -0.022230 0.084040 -0.194700
vn -0.110515 0.176752 -0.978031
v -0.026016 0.048977 -0.258996
vn -0.265063 0.853013 -0.449568
v -0.026016 0.048977 -0.258996
vn -0.188068 0.959109 0.211520
v -0.016435 0.125262 0.025051
vn -0.034547 0.966152 0.255650
v -0.002979 0.125747 0.028930
vn -0.683094 -0.046371 0.728857
v -0.034141 0.099325 0.039097
vn -0.422207 0.543137 0.725771
v -0.025397 0.098560 0.045450
vn 0.758912 0.597019 0.260040
v 0.048581 0.101810 0.015875
vn 0.482171 0.720429 0.498490
v 0.021609 0.124624 0.021486
vn 0.472277 0.785149 -0.400620
v 0.030975 0.045755 -0.259001
vn 0.977448 -0.210474 0.017192
v 0.054317 -0.010114 -0.258986
vn -0.973197 0.220468 -0.065434
v -0.053972 0.011547 -0.259007
vn 0.141809 0.499118 0.854852
v 0.008457 0.097855 0.051580
vn 0.299938 -0.053869 0.952436
v 0.014791 0.015774 0.045936
vn 0.045786 -0.998501 0.030005
v 0.003135 -0.055128 -0.258948
vn -0.996901 -0.078054 0.009774
v -0.055017 -0.004388 -0.258986
vn 0.611813 0.726328 0.313261
v 0.026521 0.124106 0.015798
vn -0.208660 -0.977987 -0.001866
v -0.011763 -0.053896 -0.259001
vn 0.779230 -0.626681 -0.008413
v 0.042926 -0.034475 -0.259000
vn 0.616540 -0.787286 -0.007723
v 0.034012 -0.043461 -0.258999
vn 0.248826 -0.968531 0.005865
v 0.011211 -0.053977 -0.259006
vn 0.412499 -0.910948 -0.004345
v 0.022528 -0.050277 -0.258997
vn -0.839129 -0.543855 -0.009219
v -0.046492 -0.029710 -0.259049
vn -0.946336 -0.323084 -0.008018
v -0.052037 -0.018093 -0.259016
vn -0.679657 -0.733413 -0.013138
v -0.036886 -0.040848 -0.259013
vn -0.459821 -0.887975 -0.008049
v -0.025513 -0.048914 -0.259017
vn 0.893573 -0.448826 -0.009057
v 0.048748 -0.025715 -0.259002
# 206 vertices, 0 vertices normals

f 153//153 2//2 3//3
f 154//154 155//155 6//6
f 156//156 157//157 9//9
f 158//158 159//159 160//160
f 161//161 162//162 163//163
f 163//163 162//162 16//16
f 164//164 165//165 166//166
f 167//167 168//168 22//22
f 169//169 170//170 25//25
f 5//5 24//24 23//23
f 153//153 171//171 2//2
f 27//27 155//155 172//172
f 173//173 165//165 164//164
f 174//174 154//154 6//6
f 175//175 176//176 30//30
f 175//175 30//30 177//177
f 34//34 178//178 36//36
f 37//37 161//161 179//179
f 39//39 9//9 157//157
f 180//180 157//157 182//182
f 28//28 167//167 22//22
f 42//42 183//183 44//44
f 44//44 183//183 184//184
f 4//4 185//185 5//5
f 186//186 48//48 46//46
f 185//185 4//4 47//47
f 14//14 49//49 187//187
f 50//50 16//16 162//162
f 51//51 52//52 53//53
f 178//178 54//54 188//188
f 53//53 35//35 55//55
f 184//184 35//35 44//44
f 56//56 37//37 179//179
f 156//156 57//57 189//189
f 57//57 156//156 59//59
f 60//60 61//61 62//62
f 63//63 190//190 16//16
f 190//190 163//163 16//16
f 65//65 66//66 36//36
f 67//67 68//68 69//69
f 42//42 44//44 52//52
f 70//70 52//52 71//71
f 72//72 70//70 73//73
f 74//74 75//75 25//25
f 67//67 183//183 42//42
f 67//67 76//76 43//43
f 191//191 2//2 171//171
f 153//153 40//40 41//41
f 180//180 39//39 157//157
f 192//192 65//65 31//31
f 175//175 177//177 78//78
f 78//78 177//177 193//193
f 27//27 80//80 155//155
f 6//6 155//155 80//80
f 81//81 82//82 83//83
f 4//4 30//30 47//47
f 50//50 159//159 158//158
f 84//84 85//85 86//86
f 86//86 87//87 84//84
f 84//84 87//87 88//88
f 47//47 30//30 176//176
f 32//32 48//48 186//186
f 31//31 89//89 32//32
f 89//89 31//31 65//65
f 65//65 90//90 89//89
f 65//65 192//192 66//66
f 91//91 53//53 55//55
f 91//91 51//51 53//53
f 92//92 179//179 189//189
f 56//56 179//179 92//92
f 93//93 49//49 14//14
f 9//9 59//59 156//156
f 92//92 189//189 57//57
f 92//92 59//59 94//94
f 73//73 95//95 72//72
f 81//81 194//194 97//97
f 98//98 16//16 10//10
f 99//99 54//54 100//100
f 100//100 54//54 34//34
f 70//70 42//42 52//52
f 42//42 101//101 67//67
f 101//101 68//68 67//67
f 51//51 71//71 52//52
f 102//102 103//103 39//39
f 72//72 104//104 70//70
f 42//42 70//70 101//101
f 101//101 70//70 104//104
f 3//3 104//104 95//95
f 74//74 69//69 75//75
f 23//23 28//28 5//5
f 69//69 74//74 67//67
f 20//20 75//75 69//69
f 20//20 69//69 21//21
f 76//76 105//105 43//43
f 76//76 25//25 106//106
f 185//185 24//24 5//5
f 106//106 25//25 170//170
f 191//191 195//195 168//168
f 153//153 3//3 40//40
f 166//166 78//78 193//193
f 192//192 19//19 66//66
f 195//195 108//108 22//22
f 193//193 164//164 166//166
f 173//173 164//164 160//160
f 187//187 49//49 109//109
f 110//110 111//111 109//109
f 49//49 87//87 109//109
f 53//53 44//44 35//35
f 86//86 196//196 109//109
f 196//196 110//110 109//109
f 91//91 112//112 86//86
f 85//85 91//91 86//86
f 109//109 87//87 86//86
f 113//113 114//114 89//89
f 115//115 43//43 105//105
f 45//45 36//36 178//178
f 36//36 45//45 90//90
f 91//91 60//60 51//51
f 56//56 84//84 88//88
f 85//85 84//84 56//56
f 37//37 162//162 161//161
f 93//93 87//87 49//49
f 59//59 9//9 94//94
f 103//103 94//94 9//9
f 59//59 92//92 57//57
f 94//94 56//56 92//92
f 51//51 60//60 71//71
f 73//73 71//71 60//60
f 116//116 117//117 12//12
f 116//116 12//12 17//17
f 36//36 66//66 34//34
f 52//52 44//44 53//53
f 73//73 70//70 71//71
f 104//104 72//72 95//95
f 74//74 76//76 67//67
f 74//74 25//25 76//76
f 105//105 76//76 106//106
f 21//21 118//118 2//2
f 194//194 81//81 197//197
f 197//197 81//81 83//83
f 195//195 22//22 168//168
f 120//120 6//6 97//97
f 111//111 110//110 121//121
f 121//121 110//110 188//188
f 11//11 187//187 109//109
f 111//111 11//11 109//109
f 50//50 158//158 16//16
f 93//93 37//37 88//88
f 114//114 113//113 115//115
f 115//115 113//113 45//45
f 115//115 45//45 43//43
f 89//89 90//90 113//113
f 114//114 32//32 89//89
f 105//105 114//114 115//115
f 188//188 54//54 121//121
f 34//34 54//54 178//178
f 90//90 65//65 36//36
f 19//19 18//18 100//100
f 99//99 100//100 18//18
f 100//100 66//66 19//19
f 66//66 100//100 34//34
f 91//91 85//85 61//61
f 112//112 91//91 55//55
f 93//93 14//14 37//37
f 73//73 62//62 103//103
f 9//9 39//39 103//103
f 102//102 95//95 73//73
f 122//122 63//63 16//16
f 123//123 198//198 125//125
f 123//123 199//199 198//198
f 123//123 98//98 199//199
f 194//194 200//200 128//128
f 129//129 130//130 201//201
f 79//79 116//116 17//17
f 129//129 201//201 199//199
f 132//132 129//129 199//199
f 29//29 99//99 18//18
f 60//60 62//62 73//73
f 118//118 69//69 68//68
f 118//118 21//21 69//69
f 25//25 75//75 169//169
f 105//105 106//106 48//48
f 106//106 46//46 48//48
f 104//104 3//3 68//68
f 168//168 2//2 191//191
f 133//133 202//202 135//135
f 136//136 203//203 202//202
f 138//138 204//204 205//205
f 141//141 27//27 142//142
f 172//172 142//142 27//27
f 141//141 142//142 138//138
f 120//120 79//79 33//33
f 110//110 196//196 188//188
f 11//11 111//111 29//29
f 159//159 173//173 160//160
f 37//37 56//56 88//88
f 45//45 113//113 90//90
f 60//60 91//91 61//61
f 61//61 85//85 56//56
f 62//62 61//61 94//94
f 94//94 61//61 56//56
f 94//94 103//103 62//62
f 63//63 122//122 206//206
f 63//63 206//206 190//190
f 98//98 123//123 16//16
f 98//98 132//132 199//199
f 97//97 144//144 120//120
f 201//201 130//130 200//200
f 132//132 145//145 129//129
f 146//146 98//98 10//10
f 10//10 145//145 146//146
f 132//132 98//98 146//146
f 68//68 101//101 104//104
f 147//147 95//95 102//102
f 170//170 46//46 106//106
f 118//118 68//68 3//3
f 2//2 118//118 3//3
f 147//147 39//39 180//180
f 39//39 147//147 102//102
f 96//96 119//119 148//148
f 127//127 96//96 148//148
f 148//148 119//119 140//140
f 131//131 127//127 148//148
f 148//148 140//140 139//139
f 126//126 131//131 148//148
f 148//148 124//124 126//126
f 148//148 134//134 137//137
f 148//148 143//143 124//124
f 148//148 64//64 143//143
f 148//148 15//15 64//64
f 149//149 181//181 8//8
f 1//1 181//181 149//149
f 149//149 8//8 7//7
f 149//149 26//26 1//1
f 77//77 26//26 149//149
f 7//7 58//58 149//149
f 149//149 107//107 77//77
f 149//149 148//148 107//107
f 58//58 38//38 149//149
f 149//149 38//38 13//13
f 13//13 15//15 149//149
f 15//15 148//148 149//149
f 150//150 135//135 204//204
f 136//136 108//108 203//203
f 97//97 6//6 82//82
f 82//82 6//6 80//80
f 138//138 150//150 204//204
f 138//138 142//142 150//150
f 205//205 151//151 141//141
f 174//174 6//6 120//120
f 120//120 33//33 174//174
f 29//29 111//111 121//121
f 114//114 48//48 32//32
f 99//99 121//121 54//54
f 88//88 87//87 93//93
f 198//198 206//206 125//125
f 194//194 144//144 97//97
f 95//95 180//180 3//3
f 20//20 169//169 75//75
f 167//167 28//28 23//23
f 137//137 107//107 148//148
f 203//203 108//108 195//195
f 133//133 136//136 202//202
f 97//97 82//82 81//81
f 152//152 82//82 80//80
f 142//142 172//172 22//22
f 142//142 22//22 150//150
f 138//138 205//205 141//141
f 120//120 116//116 79//79
f 29//29 121//121 99//99
f 114//114 105//105 48//48
f 16//16 123//123 125//125
f 122//122 125//125 206//206
f 128//128 144//144 194//194
f 144//144 116//116 120//120
f 128//128 200//200 130//130
f 103//103 102//102 73//73
f 95//95 147//147 180//180
f 135//135 150//150 22//22
f 204//204 135//135 202//202
f 134//134 148//148 139//139
f 151//151 197//197 83//83
f 125//125 122//122 16//16
f 10//10 12//12 145//145
f 12//12 117//117 145//145
f 116//116 144//144 117//117
f 132//132 146//146 145//145
f 27//27 141//141 152//152
f 141//141 151//151 152//152
f 152//152 151//151 83//83
f 152//152 83//83 82//82
f 145//145 130//130 129//129
f 133//133 135//135 22//22
f 136//136 133//133 22//22
f 151//151 205//205 197//197
f 108//108 136//136 22//22
f 152//152 80//80 27//27
f 117//117 130//130 145//145
f 130//130 144//144 128//128
f 144//144 130//130 117//117
# 300 faces, 0 coords texture

# End of File
