####
#
# OBJ File Generated by Meshlab
#
####
# Object link4.obj
#
# Vertices: 193
# Faces: 300
#
####
vn 0.454655 -0.802249 0.386892
v 0.022569 -0.039557 0.093692
vn 0.716139 -0.584536 0.381395
v 0.034986 -0.029175 0.093760
vn 0.398347 -0.338626 0.852439
v 0.027804 -0.024311 0.100943
vn 0.885340 -0.230642 0.403704
v 0.043362 -0.013919 0.093861
vn 0.765826 0.639010 0.071951
v -0.027700 0.124000 0.006122
vn 0.174633 0.580478 0.795330
v -0.072380 0.123999 0.054529
vn 0.392138 0.680894 0.618556
v -0.051380 0.123999 0.045753
vn 0.816215 0.563947 -0.125525
v 0.045213 0.031664 0.001119
vn 0.001132 0.999999 -0.000543
v -0.037091 0.123998 -0.031832
vn 0.000776 1.000000 -0.000290
v -0.028172 0.124000 -0.010519
vn -0.070281 -0.035528 -0.996894
v -0.086144 0.123968 -0.055207
vn 0.215143 -0.005763 -0.976565
v -0.074238 0.123996 -0.054580
vn 0.303153 0.474275 0.826536
v 0.021827 0.029940 0.100929
vn 0.473569 0.110286 -0.873825
v -0.054846 0.124009 -0.047960
vn 0.707999 -0.696599 0.116132
v 0.037985 -0.036488 0.065264
vn 0.586478 -0.761064 0.277173
v 0.029027 -0.039266 0.084777
vn 0.489234 -0.863871 0.119902
v 0.026427 -0.045716 0.065717
vn 0.198238 -0.256590 -0.945972
v 0.034066 -0.043607 0.000539
vn 0.759999 -0.596188 0.258767
v 0.038719 -0.029881 0.084476
vn -0.414329 0.149193 0.897816
v -0.109295 0.124003 0.048487
vn -0.164118 0.345202 0.924068
v -0.092249 0.124000 0.054293
vn 0.460373 -0.135333 0.877349
v 0.035207 -0.010845 0.100914
vn 0.265974 -0.121497 0.956293
v 0.016564 -0.007618 0.108349
vn 0.864183 -0.409385 0.292560
v 0.043599 -0.020237 0.087046
vn 0.398282 -0.916317 0.041658
v 0.022579 -0.050414 0.000558
vn 0.128909 -0.282766 -0.950487
v -0.076570 0.039825 -0.045276
vn 0.790814 -0.610887 0.037823
v 0.043896 -0.033551 0.000521
vn 0.056213 0.440955 0.895767
v 0.002049 0.037664 0.100790
vn 0.000162 1.000000 0.000112
v -0.033068 0.123999 0.025663
vn 0.786376 0.602323 0.137185
v 0.041340 0.032356 0.066298
vn 0.490230 0.100799 -0.865745
v 0.054350 0.010373 0.000642
vn 0.917741 0.377544 0.123337
v 0.048737 0.020431 0.065666
vn 0.993879 0.005182 0.110348
v 0.052877 0.001839 0.064928
vn 0.349172 -0.891615 0.288273
v 0.018624 -0.044366 0.086920
vn 0.854391 -0.505514 0.120302
v 0.045445 -0.026708 0.065418
vn 0.161735 -0.139782 -0.976884
v -0.073458 0.069480 -0.050559
vn 0.270705 -0.093538 -0.958107
v -0.068970 0.088499 -0.051781
vn 0.912547 -0.407142 0.038644
v 0.050405 -0.022856 0.000627
vn -0.728720 -0.072044 0.681011
v -0.122193 0.095532 0.036894
vn -0.568985 -0.169038 0.804787
v -0.034936 -0.012055 0.100886
vn -0.494498 0.019008 0.868971
v -0.037027 0.002744 0.100844
vn -0.265280 0.174977 0.948161
v -0.015165 0.009109 0.108663
vn -0.365064 0.158653 0.917364
v -0.032575 0.017421 0.100906
vn -0.000723 0.999999 -0.001028
v -0.120391 0.123968 0.040330
vn -0.000120 1.000000 0.000666
v -0.129090 0.123972 0.029796
vn 0.919961 0.070905 0.385543
v 0.045633 0.004568 0.092929
vn 0.565382 0.057917 0.822793
v 0.036704 0.003599 0.100953
vn 0.945140 0.093172 0.313096
v 0.048049 0.003292 0.087399
vn 0.321771 0.027594 0.946415
v 0.019177 0.001568 0.108031
vn 0.194689 -0.249528 0.948595
v 0.012946 -0.015115 0.107815
vn 0.053293 -0.132523 0.989746
v 0.003797 -0.007079 0.110758
vn 0.149164 0.056400 0.987203
v 0.008852 0.002476 0.110543
vn 0.186333 -0.475355 0.859836
v 0.013431 -0.034342 0.100980
vn -0.767158 -0.228296 0.599458
v -0.119318 0.043544 0.028643
vn -0.700218 -0.380134 0.604312
v -0.041858 -0.020943 0.089692
vn -0.547828 -0.466818 0.694237
v -0.028743 -0.023039 0.100935
vn -0.206880 -0.165722 0.964229
v -0.013322 -0.009890 0.108975
vn -0.081432 0.282966 0.955667
v -0.005765 0.018216 0.108100
vn -0.000032 1.000000 0.000569
v -0.137607 0.123998 0.003240
vn -0.986715 -0.049851 0.154620
v -0.136655 0.104576 0.007980
vn -0.000065 1.000000 0.000984
v -0.134661 0.123981 0.018168
vn 0.326842 -0.029543 -0.944617
v -0.063776 0.107927 -0.051501
vn 0.149982 -0.055041 -0.987155
v -0.072471 0.105766 -0.053865
vn -0.334291 -0.027600 -0.942066
v -0.103567 0.123994 -0.051060
vn -0.577202 -0.030400 -0.816035
v -0.113556 0.123983 -0.045728
vn 0.981350 -0.187740 0.041299
v 0.054037 -0.011261 0.000538
vn 0.998673 -0.035133 0.037648
v 0.055140 -0.002814 0.000579
vn 0.911991 0.408449 0.037969
v 0.050232 0.023144 0.000568
vn -0.088578 -0.109722 -0.990008
v -0.087198 0.079611 -0.052439
vn 0.019729 -0.078513 -0.996718
v -0.082402 0.092920 -0.053905
vn 0.215576 -0.970189 0.110729
v 0.009153 -0.052080 0.065466
vn -0.698395 -0.614162 -0.367491
v -0.118237 0.028972 -0.018545
vn -0.607787 -0.625923 -0.488688
v -0.114342 0.028618 -0.024115
vn -0.562279 -0.798539 -0.214891
v -0.031671 -0.045195 0.000873
vn -0.281438 -0.004509 0.959569
v -0.016019 0.001295 0.109144
vn 0.772466 0.333086 0.540694
v 0.042435 0.018317 0.092196
vn 0.892550 0.357462 0.274908
v 0.045046 0.018327 0.085521
vn 0.951901 -0.280261 0.123847
v 0.050572 -0.014743 0.066511
vn 0.944134 -0.178188 0.277237
v 0.047475 -0.009573 0.086165
vn 0.118949 0.272013 0.954914
v 0.007716 0.017187 0.108234
vn -0.075450 0.055351 0.995612
v -0.004346 0.002963 0.111052
vn 0.253729 0.176780 0.950984
v 0.015284 0.010014 0.108356
vn -0.671596 -0.608269 0.423045
v -0.032778 -0.033914 0.090005
vn -0.820404 -0.350965 0.451398
v -0.121548 0.037507 0.022252
vn -0.418392 -0.900412 0.119187
v -0.022347 -0.047624 0.066152
vn -0.326242 -0.641330 -0.694451
v -0.023522 -0.049968 0.000617
vn -0.108180 -0.514515 -0.850630
v -0.010681 -0.054289 0.000562
vn 0.101548 -0.955293 0.277674
v 0.005715 -0.048166 0.086143
vn -0.902029 -0.010247 -0.431554
v -0.132118 0.123998 -0.024018
vn -0.978550 -0.017292 -0.205284
v -0.136445 0.123998 -0.011417
vn -0.780466 -0.012218 -0.625078
v -0.125335 0.124000 -0.034670
vn 0.259750 -0.964891 0.038920
v 0.014950 -0.053137 0.000568
vn 0.043730 -0.998307 0.038362
v 0.004073 -0.055150 0.000623
vn -0.073391 -0.355051 -0.931962
v -0.086007 0.037573 -0.044819
vn 0.578176 0.588977 0.564641
v 0.031774 0.033860 0.091676
vn -0.501623 -0.579880 -0.641960
v -0.107874 0.030200 -0.032339
vn -0.266186 -0.530291 -0.804945
v -0.095079 0.030948 -0.039772
vn -0.595489 -0.789524 0.148476
v -0.031992 -0.041577 0.066830
vn -0.712360 -0.696695 0.084614
v -0.120676 0.026656 0.003086
vn -0.945411 -0.103336 0.309064
v -0.132852 0.085270 0.017568
vn -0.929822 -0.191513 0.314252
v -0.128322 0.052420 0.015393
vn -0.866253 -0.159195 0.473564
v -0.127220 0.065177 0.023866
vn -0.861932 -0.075410 0.501385
v -0.129377 0.095919 0.027186
vn -0.765524 -0.134044 0.629290
v -0.122010 0.074521 0.033735
vn -0.872213 -0.232457 -0.430359
v -0.123590 0.042113 -0.021113
vn -0.910326 -0.373969 -0.177353
v -0.126198 0.036393 -0.009207
vn -0.952567 -0.169173 -0.252976
v -0.130713 0.061180 -0.013270
vn -0.830006 -0.425169 -0.361000
v -0.123064 0.035819 -0.017724
vn -0.756757 -0.630588 -0.172270
v -0.120488 0.027672 -0.009549
vn 0.778092 0.563906 0.276737
v 0.038328 0.029774 0.085636
vn 0.034720 0.187809 0.981592
v 0.002764 0.012288 0.109876
vn 0.464764 0.260540 0.846235
v 0.032520 0.017150 0.100966
vn -0.072204 -0.281705 0.956781
v -0.004802 -0.016582 0.108757
vn -0.247142 -0.505593 0.826618
v -0.016175 -0.033271 0.100932
vn -0.020706 -0.525306 0.850662
v -0.001304 -0.036786 0.100922
vn -0.092061 -0.953036 0.288525
v -0.006624 -0.046218 0.091497
vn -0.131517 -0.980768 0.144213
v -0.007343 -0.052124 0.066949
vn -0.208770 -0.046574 -0.976855
v -0.094255 0.106407 -0.053490
vn -0.997126 -0.059333 -0.047110
v -0.136806 0.098993 -0.003694
vn -0.958898 -0.270016 -0.087214
v -0.127978 0.039843 -0.004448
vn -0.981633 -0.188122 -0.031720
v -0.130818 0.052212 -0.001483
vn -0.001336 -0.182443 -0.983215
v -0.081036 0.056624 -0.049171
vn -0.632406 -0.309570 -0.710091
v -0.113825 0.038682 -0.032764
vn -0.459969 -0.412230 -0.786445
v -0.105099 0.035459 -0.037803
vn -0.285308 -0.093829 -0.953832
v -0.097660 0.085241 -0.051058
vn -0.434034 -0.137490 -0.890343
v -0.105004 0.073322 -0.046745
vn -0.431721 -0.060387 -0.899983
v -0.105042 0.102325 -0.049638
vn -0.298047 -0.326464 -0.896989
v -0.095913 0.038365 -0.043246
vn -0.891672 -0.332689 0.306983
v -0.125088 0.038043 0.014786
vn -0.805920 -0.528514 0.266768
v -0.121732 0.031247 0.014315
vn -0.989025 -0.105168 0.103775
v -0.135274 0.084244 0.006179
vn -0.977272 -0.161190 0.137684
v -0.132355 0.063413 0.007006
vn -0.868537 -0.158272 -0.469673
v -0.127128 0.064748 -0.023886
vn 0.189692 -0.901086 0.389950
v 0.007130 -0.045217 0.093041
vn 0.068995 -0.307360 0.949089
v 0.004104 -0.019016 0.107912
vn -0.282714 -0.652836 0.702764
v -0.017654 -0.043502 0.090834
vn -0.526076 -0.819818 0.226145
v -0.026170 -0.039015 0.090543
vn -0.912926 -0.098350 -0.396098
v -0.131688 0.087091 -0.020824
vn -0.856254 -0.047015 -0.514410
v -0.129765 0.106224 -0.027672
vn -0.469923 -0.233701 -0.851209
v -0.105467 0.042327 -0.040228
vn -0.937784 -0.326969 0.116841
v -0.127336 0.038252 0.006009
vn -0.852594 -0.521026 0.040188
v -0.124648 0.031999 0.003327
vn -0.737244 -0.392652 -0.549815
v -0.118012 0.036774 -0.027166
vn -0.971057 -0.078214 -0.225677
v -0.135538 0.097306 -0.011731
vn -0.988909 -0.130596 -0.070743
v -0.134277 0.074340 -0.004290
vn -0.760620 -0.189023 -0.621070
v -0.119562 0.054034 -0.031530
vn -0.778288 -0.114793 -0.617325
v -0.124401 0.082466 -0.032557
vn -0.724082 -0.049464 -0.687938
v -0.121956 0.102260 -0.037873
vn -0.592852 -0.093029 -0.799920
v -0.114429 0.087759 -0.042990
vn -0.618648 -0.165949 -0.767942
v -0.112995 0.060261 -0.039425
vn -0.935143 -0.038252 -0.352198
v -0.133811 0.107879 -0.019222
vn -0.232806 -0.182410 -0.955263
v -0.093721 0.053071 -0.047253
vn 0.326976 -0.554838 0.765011
v 0.022569 -0.039557 0.093692
vn 0.490847 -0.410265 0.768604
v 0.034986 -0.029175 0.093760
vn 0.611099 -0.183788 0.769922
v 0.043362 -0.013919 0.093861
vn -0.000201 1.000000 0.000056
v -0.027700 0.124000 0.006122
vn 0.000028 1.000000 0.000043
v -0.072380 0.123999 0.054529
vn 0.000078 1.000000 0.000062
v -0.051380 0.123999 0.045753
vn 0.719635 0.458243 -0.521670
v -0.037091 0.123998 -0.031832
vn 0.781613 0.599467 -0.172398
v -0.028172 0.124000 -0.010519
vn -0.000693 1.000000 0.000131
v -0.086144 0.123968 -0.055207
vn -0.001703 0.999998 0.001245
v -0.074238 0.123996 -0.054580
vn 0.000221 1.000000 0.000014
v -0.054846 0.124009 -0.047960
vn 0.619783 -0.783852 0.038027
v 0.034066 -0.043607 0.000539
vn -0.000586 0.999999 -0.001206
v -0.109295 0.124003 0.048487
vn 0.000090 1.000000 0.000112
v -0.092249 0.124000 0.054293
vn 0.145687 -0.316088 -0.937477
v 0.022579 -0.050414 0.000558
vn 0.247649 -0.191591 -0.949717
v 0.043896 -0.033551 0.000521
vn 0.662558 0.691630 0.287516
v -0.033068 0.123999 0.025663
vn 0.980043 0.194928 0.038978
v 0.054350 0.010373 0.000642
vn 0.294718 -0.131341 -0.946515
v 0.050405 -0.022856 0.000627
vn -0.670125 -0.028812 0.741689
v -0.120391 0.123968 0.040330
vn -0.829873 -0.035511 0.556821
v -0.129090 0.123972 0.029796
vn 0.662264 0.072725 0.745732
v 0.045633 0.004568 0.092929
vn -0.283125 -0.236272 0.929525
v -0.028743 -0.023039 0.100935
vn -0.998630 -0.017411 0.049346
v -0.137607 0.123998 0.003240
vn -0.945146 -0.032656 0.325012
v -0.134661 0.123981 0.018168
vn 0.000231 1.000000 -0.000414
v -0.103567 0.123994 -0.051060
vn -0.000120 1.000000 -0.000128
v -0.113556 0.123983 -0.045728
vn 0.339787 -0.075367 -0.937478
v 0.054037 -0.011261 0.000538
vn 0.396812 -0.009036 -0.917855
v 0.055140 -0.002814 0.000579
vn 0.645043 0.324010 -0.692053
v 0.050232 0.023144 0.000568
vn -0.413446 -0.909652 0.039946
v -0.023522 -0.049968 0.000617
vn -0.223586 -0.973841 0.040544
v -0.010681 -0.054289 0.000562
vn -0.000035 1.000000 0.000051
v -0.132118 0.123998 -0.024018
vn -0.000016 1.000000 -0.000012
v -0.136445 0.123998 -0.011417
vn 0.000187 1.000000 -0.000458
v -0.125335 0.124000 -0.034670
vn 0.093846 -0.364498 -0.926463
v 0.014950 -0.053137 0.000568
vn 0.031712 -0.415378 -0.909096
v 0.004073 -0.055150 0.000623
vn -0.130935 -0.676560 0.724654
v -0.006624 -0.046218 0.091497
vn 0.093686 -0.661904 0.743711
v 0.007130 -0.045217 0.093041
vn -0.333827 -0.915077 0.226260
v -0.017654 -0.043502 0.090834
vn -0.421940 -0.568638 0.706128
v -0.026170 -0.039015 0.090543
# 193 vertices, 0 vertices normals

f 153//153 154//154 3//3
f 3//3 154//154 155//155
f 156//156 157//157 158//158
f 8//8 159//159 160//160
f 161//161 156//156 162//162
f 7//7 6//6 13//13
f 5//5 8//8 160//160
f 163//163 10//10 9//9
f 15//15 16//16 17//17
f 15//15 17//17 164//164
f 15//15 19//19 16//16
f 165//165 166//166 156//156
f 22//22 3//3 155//155
f 23//23 3//3 22//22
f 2//2 24//24 4//4
f 163//163 162//162 156//156
f 163//163 156//156 10//10
f 167//167 26//26 18//18
f 168//168 18//18 26//26
f 6//6 28//28 13//13
f 169//169 30//30 5//5
f 170//170 32//32 33//33
f 16//16 34//34 17//17
f 15//15 164//164 27//27
f 15//15 35//35 19//19
f 35//35 15//15 27//27
f 1//1 16//16 2//2
f 16//16 19//19 2//2
f 168//168 26//26 36//36
f 36//36 37//37 171//171
f 39//39 40//40 41//41
f 42//42 21//21 20//20
f 20//20 43//43 42//42
f 39//39 172//172 173//173
f 20//20 41//41 43//43
f 41//41 42//42 43//43
f 19//19 24//24 2//2
f 155//155 174//174 47//47
f 46//46 4//4 48//48
f 49//49 22//22 47//47
f 22//22 49//49 23//23
f 22//22 155//155 47//47
f 3//3 23//23 50//50
f 51//51 23//23 52//52
f 53//53 153//153 3//3
f 40//40 54//54 55//55
f 175//175 57//57 40//40
f 157//157 156//156 166//166
f 6//6 21//21 28//28
f 28//28 21//21 58//58
f 176//176 60//60 177//177
f 12//12 14//14 62//62
f 63//63 62//62 37//37
f 178//178 179//179 156//156
f 156//156 161//161 178//178
f 11//11 12//12 63//63
f 37//37 62//62 180//180
f 158//158 29//29 156//156
f 14//14 31//31 181//181
f 182//182 31//31 14//14
f 32//32 8//8 30//30
f 180//180 171//171 37//37
f 69//69 70//70 36//36
f 164//164 17//17 25//25
f 17//17 34//34 71//71
f 1//1 34//34 16//16
f 35//35 27//27 38//38
f 20//20 172//172 41//41
f 165//165 156//156 44//44
f 172//172 39//39 41//41
f 72//72 73//73 74//74
f 75//75 40//40 57//57
f 48//48 76//76 46//46
f 48//48 77//77 76//76
f 24//24 35//35 78//78
f 24//24 19//19 35//35
f 79//79 24//24 78//78
f 79//79 48//48 4//4
f 79//79 78//78 33//33
f 42//42 58//58 21//21
f 80//80 13//13 28//28
f 57//57 51//51 81//81
f 52//52 49//49 82//82
f 56//56 40//40 55//55
f 83//83 56//56 55//55
f 84//84 83//83 55//55
f 85//85 183//183 184//184
f 88//88 71//71 34//34
f 156//156 61//61 45//45
f 156//156 45//45 44//44
f 59//59 61//61 156//156
f 12//12 62//62 63//63
f 185//185 186//186 156//156
f 185//185 156//156 187//187
f 26//26 188//188 189//189
f 189//189 94//94 26//26
f 26//26 167//167 188//188
f 7//7 13//13 95//95
f 30//30 8//8 5//5
f 182//182 159//159 8//8
f 182//182 14//14 159//159
f 67//67 33//33 66//66
f 170//170 68//68 32//32
f 77//77 48//48 32//32
f 32//32 48//48 33//33
f 189//189 87//87 94//94
f 96//96 97//97 86//86
f 73//73 96//96 74//74
f 96//96 86//86 74//74
f 97//97 94//94 87//87
f 70//70 11//11 63//63
f 78//78 38//38 66//66
f 71//71 25//25 17//17
f 36//36 171//171 168//168
f 98//98 83//83 99//99
f 100//100 101//101 102//102
f 103//103 104//104 39//39
f 105//105 106//106 107//107
f 108//108 106//106 105//105
f 74//74 99//99 109//109
f 109//109 72//72 74//74
f 99//99 74//74 98//98
f 40//40 75//75 41//41
f 110//110 32//32 30//30
f 79//79 4//4 24//24
f 81//81 42//42 75//75
f 52//52 80//80 111//111
f 52//52 82//82 80//80
f 49//49 47//47 112//112
f 82//82 49//49 112//112
f 13//13 80//80 82//82
f 57//57 113//113 51//51
f 23//23 49//49 52//52
f 114//114 115//115 113//113
f 114//114 190//190 115//115
f 114//114 57//57 175//175
f 114//114 113//113 57//57
f 117//117 85//85 184//184
f 62//62 14//14 181//181
f 118//118 64//64 11//11
f 119//119 60//60 176//176
f 120//120 121//121 107//107
f 187//187 156//156 179//179
f 36//36 122//122 69//69
f 93//93 92//92 71//71
f 95//95 169//169 7//7
f 169//169 95//95 110//110
f 110//110 30//30 169//169
f 80//80 28//28 58//58
f 68//68 8//8 32//32
f 67//67 170//170 33//33
f 93//93 71//71 117//117
f 123//123 124//124 96//96
f 125//125 126//126 127//127
f 97//97 87//87 86//86
f 128//128 97//97 124//124
f 35//35 38//38 78//78
f 78//78 66//66 33//33
f 84//84 129//129 130//130
f 130//130 83//83 84//84
f 100//100 131//131 132//132
f 54//54 102//102 84//84
f 103//103 102//102 104//104
f 39//39 104//104 40//40
f 103//103 100//100 102//102
f 173//173 103//103 39//39
f 132//132 101//101 100//100
f 100//100 60//60 131//131
f 133//133 105//105 107//107
f 75//75 57//57 81//81
f 41//41 75//75 42//42
f 32//32 110//110 77//77
f 48//48 79//79 33//33
f 81//81 111//111 58//58
f 58//58 42//42 81//81
f 112//112 13//13 82//82
f 95//95 13//13 112//112
f 191//191 153//153 53//53
f 134//134 34//34 1//1
f 88//88 34//34 134//134
f 50//50 53//53 3//3
f 53//53 50//50 135//135
f 115//115 190//190 191//191
f 115//115 191//191 53//53
f 117//117 192//192 85//85
f 85//85 98//98 74//74
f 74//74 183//183 85//85
f 117//117 88//88 116//116
f 114//114 193//193 136//136
f 193//193 56//56 83//83
f 193//193 114//114 56//56
f 63//63 36//36 70//70
f 60//60 100//100 177//177
f 133//133 107//107 138//138
f 139//139 89//89 91//91
f 63//63 37//37 36//36
f 122//122 36//36 26//26
f 76//76 47//47 174//174
f 112//112 47//47 76//76
f 117//117 71//71 88//88
f 184//184 93//93 117//117
f 124//124 123//123 140//140
f 97//97 96//96 124//124
f 127//127 65//65 64//64
f 25//25 71//71 92//92
f 141//141 106//106 142//142
f 120//120 106//106 141//141
f 130//130 99//99 83//83
f 60//60 119//119 131//131
f 141//141 129//129 101//101
f 55//55 54//54 84//84
f 54//54 104//104 102//102
f 105//105 143//143 108//108
f 95//95 112//112 76//76
f 76//76 110//110 95//95
f 77//77 110//110 76//76
f 51//51 52//52 81//81
f 81//81 52//52 111//111
f 135//135 50//50 51//51
f 51//51 113//113 135//135
f 135//135 115//115 53//53
f 98//98 137//137 83//83
f 137//137 85//85 192//192
f 137//137 98//98 85//85
f 116//116 192//192 117//117
f 190//190 114//114 136//136
f 177//177 103//103 173//173
f 186//186 59//59 156//156
f 90//90 119//119 176//176
f 144//144 119//119 90//90
f 145//145 131//131 119//119
f 107//107 121//121 145//145
f 120//120 107//107 106//106
f 143//143 146//146 123//123
f 146//146 143//143 105//105
f 146//146 105//105 133//133
f 147//147 133//133 138//138
f 148//148 91//91 65//65
f 139//139 91//91 148//148
f 147//147 139//139 148//148
f 125//125 64//64 118//118
f 127//127 64//64 125//125
f 126//126 149//149 127//127
f 150//150 140//140 123//123
f 147//147 148//148 149//149
f 141//141 121//121 120//120
f 142//142 99//99 130//130
f 121//121 141//141 132//132
f 132//132 141//141 101//101
f 101//101 84//84 102//102
f 101//101 129//129 84//84
f 54//54 40//40 104//104
f 103//103 177//177 100//100
f 108//108 109//109 106//106
f 109//109 108//108 72//72
f 58//58 111//111 80//80
f 23//23 51//51 50//50
f 115//115 135//135 113//113
f 116//116 88//88 134//134
f 62//62 181//181 180//180
f 89//89 151//151 90//90
f 146//146 150//150 123//123
f 138//138 139//139 147//147
f 124//124 140//140 128//128
f 128//128 140//140 152//152
f 152//152 140//140 126//126
f 147//147 150//150 146//146
f 147//147 149//149 150//150
f 147//147 146//146 133//133
f 132//132 145//145 121//121
f 109//109 142//142 106//106
f 89//89 139//139 151//151
f 97//97 128//128 94//94
f 128//128 152//152 94//94
f 150//150 149//149 126//126
f 65//65 149//149 148//148
f 65//65 127//127 149//149
f 131//131 145//145 132//132
f 107//107 144//144 138//138
f 142//142 109//109 99//99
f 11//11 70//70 69//69
f 69//69 118//118 11//11
f 72//72 143//143 73//73
f 143//143 72//72 108//108
f 126//126 140//140 150//150
f 152//152 125//125 69//69
f 130//130 141//141 142//142
f 130//130 129//129 141//141
f 151//151 144//144 90//90
f 107//107 145//145 144//144
f 138//138 144//144 151//151
f 139//139 138//138 151//151
f 126//126 125//125 152//152
f 69//69 125//125 118//118
f 144//144 145//145 119//119
f 94//94 152//152 122//122
f 94//94 122//122 26//26
f 96//96 143//143 123//123
f 143//143 96//96 73//73
f 152//152 69//69 122//122
# 300 faces, 0 coords texture

# End of File
