# Blender v2.79 (sub 0) OBJ File: ''
# www.blender.org
mtllib drawer.mtl
o drawer
v -0.253246 -0.345280 -0.041860
v -0.253246 0.345280 -0.041860
v -0.253246 0.345280 0.042860
v -0.253246 0.345280 0.042860
v -0.253246 -0.345280 0.042860
v -0.253246 -0.345280 -0.041860
v 0.254200 0.346280 -0.042860
v 0.254200 -0.346280 -0.042860
v -0.254200 -0.346280 -0.042860
v -0.254200 -0.346280 -0.042860
v -0.254200 0.346280 -0.042860
v 0.254200 0.346280 -0.042860
v 0.254200 0.345280 0.042860
v 0.254200 0.346280 0.042860
v -0.254200 0.346280 0.042860
v -0.254200 -0.346280 0.042860
v 0.254200 -0.346280 0.042860
v 0.254200 -0.345280 0.042860
v -0.254200 -0.346280 0.042860
v 0.254200 -0.345280 0.042860
v -0.253246 -0.345280 0.042860
v -0.253246 0.345280 0.042860
v 0.254200 0.345280 0.042860
v -0.254200 0.346280 0.042860
v -0.254200 -0.346280 0.042860
v -0.253246 -0.345280 0.042860
v -0.253246 0.345280 0.042860
v -0.254200 0.346280 0.042860
v -0.254200 -0.346280 0.042860
v -0.253246 0.345280 0.042860
v 0.254200 0.346280 -0.042860
v 0.254200 0.346280 0.042860
v 0.254200 0.345280 0.042860
v 0.254200 0.346280 -0.042860
v 0.254200 0.345280 0.042860
v 0.254200 0.345280 -0.041860
v 0.254200 -0.345280 0.042860
v 0.254200 -0.346280 0.042860
v 0.254200 -0.346280 -0.042860
v 0.254200 0.346280 -0.042860
v 0.254200 0.345280 -0.041860
v 0.254200 -0.345280 -0.041860
v 0.254200 -0.345280 -0.041860
v 0.254200 -0.345280 0.042860
v 0.254200 -0.346280 -0.042860
v 0.254200 0.346280 -0.042860
v 0.254200 -0.345280 -0.041860
v 0.254200 -0.346280 -0.042860
v -0.254200 -0.346280 0.042860
v -0.254200 -0.346280 -0.042860
v -0.254200 -0.346280 -0.042860
v -0.254200 -0.346280 0.042860
v -0.254200 -0.346280 -0.042860
v -0.254200 -0.346280 0.042860
v 0.254200 -0.346280 -0.042860
v 0.254200 -0.346280 0.042860
v 0.254200 -0.346280 0.042860
v 0.254200 -0.346280 -0.042860
v 0.254200 -0.346280 0.042860
v 0.254200 -0.346280 -0.042860
v -0.254200 -0.346280 -0.042860
v -0.254200 -0.346280 0.042860
v -0.257500 -0.346280 0.042860
v -0.254200 -0.346280 -0.042860
v -0.257500 -0.346280 0.042860
v -0.257500 -0.346280 -0.042860
v -0.254200 0.346280 0.042860
v -0.254200 0.346280 -0.042860
v -0.257500 0.346280 -0.042860
v -0.254200 0.346280 0.042860
v -0.257500 0.346280 -0.042860
v -0.257500 0.346280 0.042860
v -0.254200 0.346280 0.042860
v 0.254200 0.346280 0.042860
v 0.254200 0.349580 0.042860
v -0.254200 0.346280 0.042860
v 0.254200 0.349580 0.042860
v -0.254200 0.349580 0.042860
v 0.254200 0.346280 0.042860
v 0.254200 0.346280 -0.042860
v 0.254200 0.349580 -0.042860
v 0.254200 0.346280 0.042860
v 0.254200 0.349580 -0.042860
v 0.254200 0.349580 0.042860
v -0.253246 -0.345280 -0.041860
v 0.254200 -0.345280 -0.041860
v 0.254200 0.345280 -0.041860
v 0.254200 0.345280 -0.041860
v -0.253246 0.345280 -0.041860
v -0.253246 -0.345280 -0.041860
v -0.253246 0.345280 0.042860
v -0.253246 0.345280 -0.041860
v 0.254200 0.345280 -0.041860
v 0.254200 0.345280 -0.041860
v 0.254200 0.345280 0.042860
v -0.253246 0.345280 0.042860
v 0.254200 -0.345280 -0.041860
v -0.253246 -0.345280 -0.041860
v -0.253246 -0.345280 0.042860
v -0.253246 -0.345280 0.042860
v 0.254200 -0.345280 0.042860
v 0.254200 -0.345280 -0.041860
v 0.254200 -0.379410 -0.061912
v 0.254200 -0.379410 0.061912
v 0.254200 0.379410 0.061912
v 0.254200 0.379410 0.061912
v 0.254200 0.379410 -0.061912
v 0.254200 -0.379410 -0.061912
v 0.254200 0.379410 -0.061912
v 0.254200 0.379410 0.061912
v 0.273200 0.379410 0.061912
v 0.273200 0.379410 0.061912
v 0.273200 0.379410 -0.061912
v 0.254200 0.379410 -0.061912
v 0.273200 0.379410 -0.061912
v 0.273200 0.379410 0.061912
v 0.273200 -0.379410 0.061912
v 0.273200 -0.379410 0.061912
v 0.273200 -0.379410 -0.061912
v 0.273200 0.379410 -0.061912
v 0.254200 -0.379410 0.061912
v 0.254200 -0.379410 -0.061912
v 0.273200 -0.379410 -0.061912
v 0.273200 -0.379410 -0.061912
v 0.273200 -0.379410 0.061912
v 0.254200 -0.379410 0.061912
v 0.273200 -0.379410 -0.061912
v 0.254200 -0.379410 -0.061912
v 0.254200 0.379410 -0.061912
v 0.254200 0.379410 -0.061912
v 0.273200 0.379410 -0.061912
v 0.273200 -0.379410 -0.061912
v 0.273200 0.379410 0.061912
v 0.254200 0.379410 0.061912
v 0.254200 -0.379410 0.061912
v 0.254200 -0.379410 0.061912
v 0.273200 -0.379410 0.061912
v 0.273200 0.379410 0.061912
v -0.254200 -0.346280 0.042860
v -0.254200 -0.346280 -0.042860
v -0.254200 -0.346280 -0.042860
v -0.254200 -0.346280 0.042860
v -0.254200 -0.346280 -0.042860
v -0.254200 -0.346280 0.042860
v 0.254200 -0.346280 0.042860
v -0.254200 -0.346280 0.042860
v -0.254200 -0.346280 0.042860
v 0.254200 -0.346280 0.042860
v -0.254200 -0.346280 0.042860
v 0.254200 -0.346280 0.042860
v -0.254200 -0.346280 -0.042860
v 0.254200 -0.346280 -0.042860
v 0.254200 -0.346280 -0.042860
v -0.254200 -0.346280 -0.042860
v 0.254200 -0.346280 -0.042860
v -0.254200 -0.346280 -0.042860
v 0.254200 -0.346280 0.042860
v -0.254200 -0.346280 0.042860
v -0.254200 -0.346280 0.042860
v 0.254200 -0.346280 0.042860
v -0.254200 -0.346280 0.042860
v 0.254200 -0.346280 0.042860
v 0.254200 -0.346280 0.042860
v -0.254200 -0.346280 0.042860
v -0.254200 -0.349575 0.042860
v 0.254200 -0.346280 0.042860
v -0.254200 -0.349575 0.042860
v 0.254200 -0.349575 0.042860
v -0.254200 -0.346280 -0.042860
v 0.254200 -0.346280 -0.042860
v 0.254200 -0.349575 -0.042860
v -0.254200 -0.346280 -0.042860
v 0.254200 -0.349575 -0.042860
v -0.254200 -0.349575 -0.042860
v 0.254200 -0.346280 -0.042860
v 0.254200 -0.346280 0.042860
v 0.254200 -0.346280 0.042860
v 0.254200 -0.346280 -0.042860
v 0.254200 -0.346280 0.042860
v 0.254200 -0.346280 -0.042860
v -0.254200 -0.346280 -0.042860
v 0.254200 -0.346280 -0.042860
v 0.254200 -0.346280 -0.042860
v -0.254200 -0.346280 -0.042860
v 0.254200 -0.346280 -0.042860
v -0.254200 -0.346280 -0.042860
v 0.254200 -0.349575 -0.042860
v 0.254200 -0.349575 0.042860
v -0.254200 -0.349575 0.042860
v -0.254200 -0.349575 0.042860
v -0.254200 -0.349575 -0.042860
v 0.254200 -0.349575 -0.042860
v -0.254200 -0.346280 0.042860
v -0.254200 -0.346280 -0.042860
v -0.257471 -0.346280 -0.042860
v -0.254200 -0.346280 0.042860
v -0.257471 -0.346280 -0.042860
v -0.257471 -0.346280 0.042860
v 0.254200 -0.346280 -0.042860
v 0.254200 -0.346280 0.042860
v 0.254200 -0.349575 0.042860
v 0.254200 -0.346280 -0.042860
v 0.254200 -0.349575 0.042860
v 0.254200 -0.349575 -0.042860
v 0.254200 0.349580 0.042860
v 0.254200 0.349580 -0.042860
v -0.254200 0.349580 -0.042860
v -0.254200 0.349580 -0.042860
v -0.254200 0.349580 0.042860
v 0.254200 0.349580 0.042860
v 0.254200 0.346280 -0.042860
v -0.254200 0.346280 -0.042860
v -0.254200 0.349580 -0.042860
v 0.254200 0.346280 -0.042860
v -0.254200 0.349580 -0.042860
v 0.254200 0.349580 -0.042860
v -0.254200 0.346280 0.042860
v -0.254200 0.349580 0.042860
v -0.257454 0.349580 0.042860
v -0.254200 0.346280 0.042860
v -0.257454 0.349580 0.042860
v -0.257454 0.346280 0.042860
v -0.257500 -0.346280 -0.042860
v -0.257500 -0.346280 0.042860
v -0.257500 0.346280 0.042860
v -0.257500 0.346280 0.042860
v -0.257500 0.346280 -0.042860
v -0.257500 -0.346280 -0.042860
v -0.254200 0.346280 -0.042860
v -0.254200 -0.346280 -0.042860
v -0.257500 -0.346280 -0.042860
v -0.254200 0.346280 -0.042860
v -0.257500 -0.346280 -0.042860
v -0.257500 0.346280 -0.042860
v -0.254200 -0.346280 0.042860
v -0.254200 0.346280 0.042860
v -0.257500 0.346280 0.042860
v -0.254200 -0.346280 0.042860
v -0.257500 0.346280 0.042860
v -0.257500 -0.346280 0.042860
v -0.257471 -0.346280 0.042860
v -0.257471 -0.346280 -0.042860
v -0.257471 -0.349575 -0.042860
v -0.257471 -0.346280 0.042860
v -0.257471 -0.349575 -0.042860
v -0.257471 -0.349575 0.042860
v -0.254200 -0.346280 -0.042860
v -0.254200 -0.349575 -0.042860
v -0.257471 -0.349575 -0.042860
v -0.254200 -0.346280 -0.042860
v -0.257471 -0.349575 -0.042860
v -0.257471 -0.346280 -0.042860
v -0.254200 -0.349575 0.042860
v -0.254200 -0.346280 0.042860
v -0.257471 -0.346280 0.042860
v -0.254200 -0.349575 0.042860
v -0.257471 -0.346280 0.042860
v -0.257471 -0.349575 0.042860
v -0.254200 -0.349575 -0.042860
v -0.254200 -0.349575 0.042860
v -0.257471 -0.349575 0.042860
v -0.254200 -0.349575 -0.042860
v -0.257471 -0.349575 0.042860
v -0.257471 -0.349575 -0.042860
v -0.257454 0.346280 -0.042860
v -0.257454 0.346280 0.042860
v -0.257454 0.349580 0.042860
v -0.257454 0.346280 -0.042860
v -0.257454 0.349580 0.042860
v -0.257454 0.349580 -0.042860
v -0.254200 0.346280 -0.042860
v -0.254200 0.346280 0.042860
v -0.257454 0.346280 0.042860
v -0.254200 0.346280 -0.042860
v -0.257454 0.346280 0.042860
v -0.257454 0.346280 -0.042860
v -0.254200 0.349580 -0.042860
v -0.254200 0.346280 -0.042860
v -0.257454 0.346280 -0.042860
v -0.254200 0.349580 -0.042860
v -0.257454 0.346280 -0.042860
v -0.257454 0.349580 -0.042860
v -0.254200 0.349580 0.042860
v -0.254200 0.349580 -0.042860
v -0.257454 0.349580 -0.042860
v -0.254200 0.349580 0.042860
v -0.257454 0.349580 -0.042860
v -0.257454 0.349580 0.042860
vt 0.209834 0.464822
vt 0.790166 0.464822
vt 0.790166 0.536019
vt 0.790166 0.536019
vt 0.209834 0.536019
vt 0.209834 0.464822
vt 0.713624 0.791006
vt 0.713624 0.208994
vt 0.286376 0.208994
vt 0.286376 0.208994
vt 0.286376 0.791006
vt 0.713624 0.791006
vt 0.713624 0.790166
vt 0.713624 0.791006
vt 0.286376 0.791006
vt 0.286376 0.208994
vt 0.713624 0.208994
vt 0.713624 0.209834
vt 0.286376 0.208994
vt 0.713624 0.209834
vt 0.287178 0.209834
vt 0.287178 0.790166
vt 0.713624 0.790166
vt 0.286376 0.791006
vt 0.286376 0.208994
vt 0.287178 0.209834
vt 0.287178 0.790166
vt 0.286376 0.791006
vt 0.286376 0.208994
vt 0.287178 0.790166
vt 0.791006 0.463981
vt 0.791006 0.536019
vt 0.790166 0.536019
vt 0.791006 0.463981
vt 0.790166 0.536019
vt 0.790166 0.464822
vt 0.209834 0.536019
vt 0.208994 0.536019
vt 0.208994 0.463981
vt 0.791006 0.463981
vt 0.790166 0.464822
vt 0.209834 0.464822
vt 0.209834 0.464822
vt 0.209834 0.536019
vt 0.208994 0.463981
vt 0.791006 0.463981
vt 0.209834 0.464822
vt 0.208994 0.463981
vt 0.286376 0.208994
vt 0.286376 0.208994
vt 0.286376 0.208994
vt 0.286376 0.208994
vt 0.286376 0.208994
vt 0.286376 0.208994
vt 0.713624 0.208994
vt 0.713624 0.208994
vt 0.713624 0.208994
vt 0.713624 0.208994
vt 0.713624 0.208994
vt 0.713624 0.208994
vt 0.286376 0.463981
vt 0.286376 0.536019
vt 0.283603 0.536019
vt 0.286376 0.463981
vt 0.283603 0.536019
vt 0.283603 0.463981
vt 0.286376 0.536019
vt 0.286376 0.463981
vt 0.283603 0.463981
vt 0.286376 0.536019
vt 0.283603 0.463981
vt 0.283603 0.536019
vt 0.286376 0.791006
vt 0.713624 0.791006
vt 0.713624 0.793779
vt 0.286376 0.791006
vt 0.713624 0.793779
vt 0.286376 0.793779
vt 0.791006 0.536019
vt 0.791006 0.463981
vt 0.793779 0.463981
vt 0.791006 0.536019
vt 0.793779 0.463981
vt 0.793779 0.536019
vt 0.287178 0.209834
vt 0.713624 0.209834
vt 0.713624 0.790166
vt 0.713624 0.790166
vt 0.287178 0.790166
vt 0.287178 0.209834
vt 0.287178 0.536019
vt 0.287178 0.464822
vt 0.713624 0.464822
vt 0.713624 0.464822
vt 0.713624 0.536019
vt 0.287178 0.536019
vt 0.713624 0.464822
vt 0.287178 0.464822
vt 0.287178 0.536019
vt 0.287178 0.536019
vt 0.713624 0.536019
vt 0.713624 0.464822
vt 0.181152 0.447971
vt 0.181152 0.552029
vt 0.818848 0.552029
vt 0.818848 0.552029
vt 0.818848 0.447971
vt 0.181152 0.447971
vt 0.713624 0.447971
vt 0.713624 0.552029
vt 0.729591 0.552029
vt 0.729591 0.552029
vt 0.729591 0.447971
vt 0.713624 0.447971
vt 0.818848 0.447971
vt 0.818848 0.552029
vt 0.181152 0.552029
vt 0.181152 0.552029
vt 0.181152 0.447971
vt 0.818848 0.447971
vt 0.713624 0.552029
vt 0.713624 0.447971
vt 0.729591 0.447971
vt 0.729591 0.447971
vt 0.729591 0.552029
vt 0.713624 0.552029
vt 0.729591 0.181152
vt 0.713624 0.181152
vt 0.713624 0.818848
vt 0.713624 0.818848
vt 0.729591 0.818848
vt 0.729591 0.181152
vt 0.729591 0.818848
vt 0.713624 0.818848
vt 0.713624 0.181152
vt 0.713624 0.181152
vt 0.729591 0.181152
vt 0.729591 0.818848
vt 0.286376 0.208994
vt 0.286376 0.208994
vt 0.286376 0.208994
vt 0.286376 0.208994
vt 0.286376 0.208994
vt 0.286376 0.208994
vt 0.713624 0.208994
vt 0.286376 0.208994
vt 0.286376 0.208994
vt 0.713624 0.208994
vt 0.286376 0.208994
vt 0.713624 0.208994
vt 0.286376 0.208994
vt 0.713624 0.208994
vt 0.713624 0.208994
vt 0.286376 0.208994
vt 0.713624 0.208994
vt 0.286376 0.208994
vt 0.713624 0.208994
vt 0.286376 0.208994
vt 0.286376 0.208994
vt 0.713624 0.208994
vt 0.286376 0.208994
vt 0.713624 0.208994
vt 0.713624 0.208994
vt 0.286376 0.208994
vt 0.286376 0.206225
vt 0.713624 0.208994
vt 0.286376 0.206225
vt 0.713624 0.206225
vt 0.286376 0.208994
vt 0.713624 0.208994
vt 0.713624 0.206225
vt 0.286376 0.208994
vt 0.713624 0.206225
vt 0.286376 0.206225
vt 0.713624 0.208994
vt 0.713624 0.208994
vt 0.713624 0.208994
vt 0.713624 0.208994
vt 0.713624 0.208994
vt 0.713624 0.208994
vt 0.286376 0.208994
vt 0.713624 0.208994
vt 0.713624 0.208994
vt 0.286376 0.208994
vt 0.713624 0.208994
vt 0.286376 0.208994
vt 0.713624 0.463981
vt 0.713624 0.536019
vt 0.286376 0.536019
vt 0.286376 0.536019
vt 0.286376 0.463981
vt 0.713624 0.463981
vt 0.286376 0.536019
vt 0.286376 0.463981
vt 0.283627 0.463981
vt 0.286376 0.536019
vt 0.283627 0.463981
vt 0.283627 0.536019
vt 0.208994 0.463981
vt 0.208994 0.536019
vt 0.206225 0.536019
vt 0.208994 0.463981
vt 0.206225 0.536019
vt 0.206225 0.463981
vt 0.713624 0.536019
vt 0.713624 0.463981
vt 0.286376 0.463981
vt 0.286376 0.463981
vt 0.286376 0.536019
vt 0.713624 0.536019
vt 0.713624 0.791006
vt 0.286376 0.791006
vt 0.286376 0.793779
vt 0.713624 0.791006
vt 0.286376 0.793779
vt 0.713624 0.793779
vt 0.286376 0.791006
vt 0.286376 0.793779
vt 0.283641 0.793779
vt 0.286376 0.791006
vt 0.283641 0.793779
vt 0.283641 0.791006
vt 0.208994 0.463981
vt 0.208994 0.536019
vt 0.791006 0.536019
vt 0.791006 0.536019
vt 0.791006 0.463981
vt 0.208994 0.463981
vt 0.286376 0.791006
vt 0.286376 0.208994
vt 0.283603 0.208994
vt 0.286376 0.791006
vt 0.283603 0.208994
vt 0.283603 0.791006
vt 0.286376 0.208994
vt 0.286376 0.791006
vt 0.283603 0.791006
vt 0.286376 0.208994
vt 0.283603 0.791006
vt 0.283603 0.208994
vt 0.208994 0.536019
vt 0.208994 0.463981
vt 0.206225 0.463981
vt 0.208994 0.536019
vt 0.206225 0.463981
vt 0.206225 0.536019
vt 0.286376 0.208994
vt 0.286376 0.206225
vt 0.283627 0.206225
vt 0.286376 0.208994
vt 0.283627 0.206225
vt 0.283627 0.208994
vt 0.286376 0.206225
vt 0.286376 0.208994
vt 0.283627 0.208994
vt 0.286376 0.206225
vt 0.283627 0.208994
vt 0.283627 0.206225
vt 0.286376 0.463981
vt 0.286376 0.536019
vt 0.283627 0.536019
vt 0.286376 0.463981
vt 0.283627 0.536019
vt 0.283627 0.463981
vt 0.791006 0.463981
vt 0.791006 0.536019
vt 0.793779 0.536019
vt 0.791006 0.463981
vt 0.793779 0.536019
vt 0.793779 0.463981
vt 0.286376 0.463981
vt 0.286376 0.536019
vt 0.283641 0.536019
vt 0.286376 0.463981
vt 0.283641 0.536019
vt 0.283641 0.463981
vt 0.286376 0.793779
vt 0.286376 0.791006
vt 0.283641 0.791006
vt 0.286376 0.793779
vt 0.283641 0.791006
vt 0.283641 0.793779
vt 0.286376 0.536019
vt 0.286376 0.463981
vt 0.283641 0.463981
vt 0.286376 0.536019
vt 0.283641 0.463981
vt 0.283641 0.536019
vn 1.0000 0.0000 0.0000
vn 0.0000 0.0000 -1.0000
vn 0.0000 0.0000 1.0000
vn 0.0000 0.0000 0.0000
vn 0.0000 -1.0000 0.0000
vn 0.0000 1.0000 0.0000
vn -1.0000 0.0000 0.0000
usemtl Material.003
s 1
f 1/1/1 2/2/1 3/3/1
f 4/4/1 5/5/1 6/6/1
f 7/7/2 8/8/2 9/9/2
f 10/10/2 11/11/2 12/12/2
f 13/13/3 14/14/3 15/15/3
f 16/16/3 17/17/3 18/18/3
f 19/19/3 20/20/3 21/21/3
f 22/22/3 23/23/3 24/24/3
f 25/25/3 26/26/3 27/27/3
f 28/28/3 29/29/3 30/30/3
f 31/31/1 32/32/1 33/33/1
f 34/34/1 35/35/1 36/36/1
f 37/37/1 38/38/1 39/39/1
f 40/40/1 41/41/1 42/42/1
f 43/43/1 44/44/1 45/45/1
f 46/46/1 47/47/1 48/48/1
f 49/49/4 50/50/4 51/51/4
f 52/52/4 53/53/4 54/54/4
f 55/55/4 56/56/4 57/57/4
f 58/58/4 59/59/4 60/60/4
f 61/61/5 62/62/5 63/63/5
f 64/64/5 65/65/5 66/66/5
f 67/67/6 68/68/6 69/69/6
f 70/70/6 71/71/6 72/72/6
f 73/73/3 74/74/3 75/75/3
f 76/76/3 77/77/3 78/78/3
f 79/79/1 80/80/1 81/81/1
f 82/82/1 83/83/1 84/84/1
f 85/85/3 86/86/3 87/87/3
f 88/88/3 89/89/3 90/90/3
f 91/91/5 92/92/5 93/93/5
f 94/94/5 95/95/5 96/96/5
f 97/97/6 98/98/6 99/99/6
f 100/100/6 101/101/6 102/102/6
f 103/103/7 104/104/7 105/105/7
f 106/106/7 107/107/7 108/108/7
f 109/109/6 110/110/6 111/111/6
f 112/112/6 113/113/6 114/114/6
f 115/115/1 116/116/1 117/117/1
f 118/118/1 119/119/1 120/120/1
f 121/121/5 122/122/5 123/123/5
f 124/124/5 125/125/5 126/126/5
f 127/127/2 128/128/2 129/129/2
f 130/130/2 131/131/2 132/132/2
f 133/133/3 134/134/3 135/135/3
f 136/136/3 137/137/3 138/138/3
f 139/139/4 140/140/4 141/141/4
f 142/142/4 143/143/4 144/144/4
f 145/145/3 146/146/3 147/147/3
f 148/148/3 149/149/3 150/150/3
f 151/151/3 152/152/3 153/153/3
f 154/154/3 155/155/3 156/156/3
f 157/157/3 158/158/3 159/159/3
f 160/160/3 161/161/3 162/162/3
f 163/163/3 164/164/3 165/165/3
f 166/166/3 167/167/3 168/168/3
f 169/169/2 170/170/2 171/171/2
f 172/172/2 173/173/2 174/174/2
f 175/175/4 176/176/4 177/177/4
f 178/178/4 179/179/4 180/180/4
f 181/181/3 182/182/3 183/183/3
f 184/184/3 185/185/3 186/186/3
f 187/187/5 188/188/5 189/189/5
f 190/190/5 191/191/5 192/192/5
f 193/193/6 194/194/6 195/195/6
f 196/196/6 197/197/6 198/198/6
f 199/199/1 200/200/1 201/201/1
f 202/202/1 203/203/1 204/204/1
f 205/205/6 206/206/6 207/207/6
f 208/208/6 209/209/6 210/210/6
f 211/211/2 212/212/2 213/213/2
f 214/214/2 215/215/2 216/216/2
f 217/217/3 218/218/3 219/219/3
f 220/220/3 221/221/3 222/222/3
f 223/223/7 224/224/7 225/225/7
f 226/226/7 227/227/7 228/228/7
f 229/229/2 230/230/2 231/231/2
f 232/232/2 233/233/2 234/234/2
f 235/235/3 236/236/3 237/237/3
f 238/238/3 239/239/3 240/240/3
f 241/241/7 242/242/7 243/243/7
f 244/244/7 245/245/7 246/246/7
f 247/247/2 248/248/2 249/249/2
f 250/250/2 251/251/2 252/252/2
f 253/253/3 254/254/3 255/255/3
f 256/256/3 257/257/3 258/258/3
f 259/259/5 260/260/5 261/261/5
f 262/262/5 263/263/5 264/264/5
f 265/265/7 266/266/7 267/267/7
f 268/268/7 269/269/7 270/270/7
f 271/271/5 272/272/5 273/273/5
f 274/274/5 275/275/5 276/276/5
f 277/277/2 278/278/2 279/279/2
f 280/280/2 281/281/2 282/282/2
f 283/283/6 284/284/6 285/285/6
f 286/286/6 287/287/6 288/288/6
