####
#
# OBJ File Generated by Meshlab
#
####
# Object sektion_convexdecomposition.obj
#
# Vertices: 66
# Faces: 104
#
####
vn 1.570796 1.570796 1.570796
v 0.335071 0.383357 0.408209 0.752941 0.752941 0.752941
vn -1.609502 -1.197139 -1.148049
v -0.305000 -0.379805 0.358978 0.752941 0.752941 0.752941
vn 1.570798 -1.570796 1.570796
v 0.335071 -0.387214 0.408209 0.752941 0.752941 0.752941
vn 0.655199 2.369212 -4.540857
v 0.305000 0.376628 0.358934 0.752941 0.752941 0.752941
vn -1.354020 1.910949 1.806844
v -0.286289 0.383357 0.408209 0.752941 0.752941 0.752941
vn 0.655199 -2.369209 -4.540863
v 0.305000 -0.380485 0.358934 0.752941 0.752941 0.752941
vn -1.609502 1.197139 -1.148049
v -0.305000 0.375948 0.358978 0.752941 0.752941 0.752941
vn -1.354020 -1.910949 1.806842
v -0.286289 -0.387214 0.408209 0.752941 0.752941 0.752941
vn 2.075863 1.944967 -1.478540
v 0.335071 0.383357 0.370932 0.752941 0.752941 0.752941
vn 2.075861 -1.944967 -1.478539
v 0.335071 -0.387214 0.370932 0.752941 0.752941 0.752941
vn -1.647941 -1.836490 2.224027
v -0.299263 -0.381000 -0.338461 0.752941 0.752941 0.752941
vn 1.670127 1.662104 1.579903
v 0.310214 -0.064103 -0.349937 0.752941 0.752941 0.752941
vn 1.588665 1.570691 -1.582794
v 0.310214 -0.064103 -0.387214 0.752941 0.752941 0.752941
vn 1.433814 -1.520963 -1.252648
v 0.310214 -0.387214 -0.387214 0.752941 0.752941 0.752941
vn -1.680396 1.436837 -1.492392
v -0.311214 -0.064103 -0.387214 0.752941 0.752941 0.752941
vn -0.576154 2.890262 2.476936
v -0.286000 -0.056932 -0.336402 0.752941 0.752941 0.752941
vn 1.461267 -2.428991 2.596744
v 0.298263 -0.381000 -0.338461 0.752941 0.752941 0.752941
vn -1.409324 -1.345008 -1.072033
v -0.311214 -0.387214 -0.387214 0.752941 0.752941 0.752941
vn 3.047410 -0.324806 3.024795
v 0.310214 -0.349893 -0.337505 0.752941 0.752941 0.752941
vn -2.624933 1.484174 2.471616
v -0.305000 -0.067334 -0.338002 0.752941 0.752941 0.752941
vn -1.726524 -1.429315 -1.536936
v -0.311214 -0.064071 -0.387214 0.752941 0.752941 0.752941
vn 1.577475 2.099979 2.136538
v 0.305000 0.379603 -0.337922 0.752941 0.752941 0.752941
vn 1.493327 1.557846 -1.411268
v 0.310214 0.383357 -0.387214 0.752941 0.752941 0.752941
vn 1.595541 -1.570594 -1.587411
v 0.310214 -0.064071 -0.387214 0.752941 0.752941 0.752941
vn -0.685614 -2.787151 2.255536
v -0.286000 -0.074002 -0.336402 0.752941 0.752941 0.752941
vn -1.654250 1.694842 1.933810
v -0.305000 0.378883 -0.338002 0.752941 0.752941 0.752941
vn -1.470799 1.439850 -1.255356
v -0.311214 0.383357 -0.387214 0.752941 0.752941 0.752941
vn 1.663522 -1.639922 1.585660
v 0.310214 -0.064071 -0.349937 0.752941 0.752941 0.752941
vn 3.088404 0.264824 3.031548
v 0.310214 0.358481 -0.337505 0.752941 0.752941 0.752941
vn -2.852194 -1.315719 2.666239
v -0.305000 -0.059597 -0.338002 0.752941 0.752941 0.752941
vn 0.635912 1.102969 1.218094
v -0.273165 -0.054122 0.380000 0.752941 0.752941 0.752941
vn -1.706954 -1.951644 -1.359487
v -0.311209 -0.387214 -0.337500 0.752941 0.752941 0.752941
vn 3.169550 -3.371036 -0.704449
v -0.262456 -0.381000 -0.324114 0.752941 0.752941 0.752941
vn 0.562095 1.041655 -1.158034
v -0.273058 -0.052729 -0.362000 0.752941 0.752941 0.752941
vn 1.517107 -0.790271 2.284033
v -0.259822 -0.358283 0.382000 0.752941 0.752941 0.752941
vn -2.983341 2.002292 1.566604
v -0.311209 -0.064103 0.358500 0.752941 0.752941 0.752941
vn -1.685618 -1.929596 1.367052
v -0.311209 -0.387214 0.358500 0.752941 0.752941 0.752941
vn -3.158800 2.034005 -1.528538
v -0.311209 -0.064103 -0.337500 0.752941 0.752941 0.752941
vn 1.480350 -0.807232 -2.251142
v -0.259750 -0.358640 -0.362000 0.752941 0.752941 0.752941
vn 3.157785 -3.345546 0.729315
v -0.262456 -0.381000 0.345114 0.752941 0.752941 0.752941
vn -1.847396 -3.598199 -1.676276
v -0.261500 -0.387211 -0.337500 0.752941 0.752941 0.752941
vn 1.631461 1.607256 1.571898
v 0.310214 -0.349929 0.358500 0.752941 0.752941 0.752941
vn 1.625689 -1.607208 1.569811
v 0.310214 -0.387211 0.358500 0.752941 0.752941 0.752941
vn -0.995436 0.531727 1.039563
v -0.279161 -0.348777 0.380000 0.752941 0.752941 0.752941
vn 1.639435 1.612165 -1.571667
v 0.310214 -0.349929 -0.337500 0.752941 0.752941 0.752941
vn -0.932204 0.461908 -0.973442
v -0.281625 -0.348616 -0.362000 0.752941 0.752941 0.752941
vn -1.852130 -3.381502 1.709527
v -0.261500 -0.387211 0.358500 0.752941 0.752941 0.752941
vn 1.633075 -1.612111 -1.569527
v 0.310214 -0.387211 -0.337500 0.752941 0.752941 0.752941
vn 2.265709 2.460173 1.423955
v -0.261762 0.381000 0.354833 0.752941 0.752941 0.752941
vn -3.404070 -1.947092 -1.603043
v -0.311209 -0.064071 -0.337500 0.752941 0.752941 0.752941
vn 0.507025 -0.993434 -1.067135
v -0.273058 -0.079821 -0.362000 0.752941 0.752941 0.752941
vn 0.579321 -1.056113 1.131135
v -0.273165 -0.077893 0.380000 0.752941 0.752941 0.752941
vn -1.629141 1.727170 -1.512441
v -0.311209 0.383357 -0.337500 0.752941 0.752941 0.752941
vn -1.625930 1.720166 1.513060
v -0.311209 0.383357 0.358500 0.752941 0.752941 0.752941
vn 2.602194 0.602195 -2.933951
v -0.261060 0.362000 -0.343660 0.752941 0.752941 0.752941
vn -3.202178 -1.933576 1.639014
v -0.311209 -0.064071 0.358500 0.752941 0.752941 0.752941
vn 2.265707 2.460173 -1.423955
v -0.261762 0.381000 -0.333833 0.752941 0.752941 0.752941
vn 2.590296 0.589327 2.933079
v -0.261060 0.362000 0.364660 0.752941 0.752941 0.752941
vn -0.726418 -0.271711 -0.762643
v -0.281625 0.357625 -0.362000 0.752941 0.752941 0.752941
vn 1.626477 1.607236 1.569790
v 0.310214 0.383357 0.358500 0.752941 0.752941 0.752941
vn 1.630328 -1.607258 1.571182
v 0.310214 0.358500 0.358500 0.752941 0.752941 0.752941
vn -0.792685 -0.325774 0.832640
v -0.279161 0.357732 0.380000 0.752941 0.752941 0.752941
vn -1.744193 4.373457 -1.510863
v -0.261500 0.383357 -0.337500 0.752941 0.752941 0.752941
vn 1.633971 1.612144 -1.569502
v 0.310214 0.383357 -0.337500 0.752941 0.752941 0.752941
vn 1.638211 -1.612167 -1.570928
v 0.310214 0.358500 -0.337500 0.752941 0.752941 0.752941
vn -1.787375 4.132597 1.581133
v -0.261500 0.383357 0.358500 0.752941 0.752941 0.752941
# 66 vertices, 0 vertices normals

f 6//6 9//9 10//10
f 3//3 1//1 5//5
f 2//2 4//4 6//6
f 4//4 2//2 7//7
f 2//2 5//5 7//7
f 5//5 2//2 8//8
f 3//3 5//5 8//8
f 1//1 3//3 9//9
f 5//5 1//1 9//9
f 6//6 4//4 9//9
f 4//4 7//7 9//9
f 7//7 5//5 9//9
f 2//2 6//6 10//10
f 8//8 2//2 10//10
f 3//3 8//8 10//10
f 9//9 3//3 10//10
f 15//15 18//18 20//20
f 13//13 12//12 14//14
f 13//13 14//14 15//15
f 13//13 15//15 16//16
f 12//12 13//13 16//16
f 11//11 14//14 17//17
f 14//14 11//11 18//18
f 15//15 14//14 18//18
f 14//14 12//12 19//19
f 12//12 16//16 19//19
f 16//16 11//11 19//19
f 11//11 17//17 19//19
f 17//17 14//14 19//19
f 16//16 15//15 20//20
f 11//11 16//16 20//20
f 18//18 11//11 20//20
f 26//26 21//21 30//30
f 21//21 23//23 24//24
f 21//21 24//24 25//25
f 23//23 21//21 27//27
f 22//22 23//23 27//27
f 26//26 22//22 27//27
f 21//21 26//26 27//27
f 24//24 23//23 28//28
f 25//25 24//24 28//28
f 25//25 28//28 29//29
f 23//23 22//22 29//29
f 22//22 26//26 29//29
f 26//26 25//25 29//29
f 28//28 23//23 29//29
f 21//21 25//25 30//30
f 25//25 26//26 30//30
f 33//33 39//39 40//40
f 34//34 31//31 35//35
f 31//31 34//34 36//36
f 32//32 33//33 37//37
f 35//35 31//31 37//37
f 36//36 32//32 37//37
f 31//31 36//36 37//37
f 34//34 32//32 38//38
f 32//32 36//36 38//38
f 36//36 34//34 38//38
f 33//33 32//32 39//39
f 32//32 34//34 39//39
f 34//34 35//35 39//39
f 39//39 35//35 40//40
f 37//37 33//33 40//40
f 35//35 37//37 40//40
f 41//41 46//46 48//48
f 43//43 42//42 44//44
f 42//42 43//43 45//45
f 42//42 45//45 46//46
f 44//44 42//42 46//46
f 46//46 41//41 47//47
f 41//41 43//43 47//47
f 43//43 44//44 47//47
f 44//44 46//46 47//47
f 43//43 41//41 48//48
f 45//45 43//43 48//48
f 46//46 45//45 48//48
f 55//55 49//49 58//58
f 51//51 50//50 53//53
f 53//53 50//50 54//54
f 49//49 53//53 54//54
f 51//51 53//53 55//55
f 50//50 51//51 56//56
f 51//51 52//52 56//56
f 54//54 50//50 56//56
f 52//52 54//54 56//56
f 53//53 49//49 57//57
f 49//49 55//55 57//57
f 55//55 53//53 57//57
f 52//52 51//51 58//58
f 54//54 52//52 58//58
f 49//49 54//54 58//58
f 51//51 55//55 58//58
f 60//60 63//63 66//66
f 61//61 60//60 62//62
f 59//59 61//61 62//62
f 63//63 60//60 64//64
f 60//60 61//61 64//64
f 59//59 63//63 64//64
f 64//64 61//61 65//65
f 61//61 59//59 65//65
f 59//59 64//64 65//65
f 62//62 60//60 66//66
f 59//59 62//62 66//66
f 63//63 59//59 66//66
# 104 faces, 0 coords texture

# End of File
