# Blender v2.79 (sub 0) OBJ File: ''
# www.blender.org
mtllib sektion.mtl
o sektion
v -0.284800 -0.381000 0.402000
v -0.284800 0.381000 0.402000
v -0.284800 0.381000 0.382000
v -0.284800 -0.381000 0.402000
v -0.284800 0.381000 0.382000
v -0.284800 -0.381000 0.382000
v -0.284800 0.381000 0.402000
v 0.324800 0.381000 0.402000
v 0.324800 0.381000 0.382000
v -0.284800 0.381000 0.402000
v 0.324800 0.381000 0.382000
v -0.284800 0.381000 0.382000
v 0.324800 0.381000 0.402000
v 0.324800 -0.381000 0.402000
v 0.324800 -0.381000 0.382000
v 0.324800 0.381000 0.402000
v 0.324800 -0.381000 0.382000
v 0.324800 0.381000 0.382000
v 0.324800 -0.381000 0.402000
v -0.284800 -0.381000 0.402000
v -0.284800 -0.381000 0.382000
v 0.324800 -0.381000 0.402000
v -0.284800 -0.381000 0.382000
v 0.324800 -0.381000 0.382000
v -0.284800 -0.381000 0.382000
v -0.284800 0.381000 0.382000
v 0.324800 0.381000 0.382000
v -0.284800 -0.381000 0.382000
v 0.324800 0.381000 0.382000
v 0.324800 -0.381000 0.382000
v 0.324800 -0.381000 0.402000
v 0.324800 0.381000 0.402000
v -0.284800 0.381000 0.402000
v 0.324800 -0.381000 0.402000
v -0.284800 0.381000 0.402000
v -0.284800 -0.381000 0.402000
v -0.286000 -0.362000 -0.362000
v -0.286000 0.362000 -0.362000
v -0.286000 0.362000 0.381000
v -0.286000 -0.362000 -0.362000
v -0.286000 0.362000 0.381000
v -0.286000 -0.362000 0.381000
v 0.305000 0.381000 -0.381000
v 0.305000 -0.381000 -0.381000
v -0.305000 -0.381000 -0.381000
v 0.305000 0.381000 -0.381000
v -0.305000 -0.381000 -0.381000
v -0.305000 0.381000 -0.381000
v 0.305000 0.362000 0.381000
v 0.305000 0.381000 0.381000
v -0.286000 0.362000 0.381000
v -0.286000 0.362000 0.381000
v 0.305000 0.381000 0.381000
v -0.305000 0.381000 0.381000
v -0.286000 0.362000 0.381000
v -0.305000 0.381000 0.381000
v -0.286000 -0.362000 0.381000
v -0.286000 -0.362000 0.381000
v -0.305000 0.381000 0.381000
v -0.305000 -0.381000 0.381000
v -0.286000 -0.362000 0.381000
v -0.305000 -0.381000 0.381000
v 0.305000 -0.381000 0.381000
v -0.286000 -0.362000 0.381000
v 0.305000 -0.381000 0.381000
v 0.305000 -0.362000 0.381000
v 0.305000 -0.362000 -0.362000
v 0.305000 -0.362000 0.381000
v 0.305000 -0.381000 0.381000
v 0.305000 -0.362000 -0.362000
v 0.305000 -0.381000 0.381000
v 0.305000 -0.381000 -0.381000
v 0.305000 -0.362000 -0.362000
v 0.305000 -0.381000 -0.381000
v 0.305000 0.381000 -0.381000
v 0.305000 -0.362000 -0.362000
v 0.305000 0.381000 -0.381000
v 0.305000 0.362000 -0.362000
v 0.305000 0.362000 0.381000
v 0.305000 0.362000 -0.362000
v 0.305000 0.381000 -0.381000
v 0.305000 0.362000 0.381000
v 0.305000 0.381000 -0.381000
v 0.305000 0.381000 0.381000
v 0.305000 -0.381000 -0.381000
v 0.305000 -0.381000 0.381000
v -0.305000 -0.381000 0.381000
v 0.305000 -0.381000 -0.381000
v -0.305000 -0.381000 0.381000
v -0.305000 -0.381000 -0.381000
v -0.305000 -0.381000 -0.381000
v -0.305000 -0.381000 0.381000
v -0.305000 0.381000 0.381000
v -0.305000 -0.381000 -0.381000
v -0.305000 0.381000 0.381000
v -0.305000 0.381000 -0.381000
v 0.305000 0.381000 0.381000
v 0.305000 0.381000 -0.381000
v -0.305000 0.381000 -0.381000
v 0.305000 0.381000 0.381000
v -0.305000 0.381000 -0.381000
v -0.305000 0.381000 0.381000
v 0.305000 0.362000 -0.362000
v -0.286000 0.362000 -0.362000
v -0.286000 -0.362000 -0.362000
v 0.305000 0.362000 -0.362000
v -0.286000 -0.362000 -0.362000
v 0.305000 -0.362000 -0.362000
v -0.286000 0.362000 0.381000
v -0.286000 0.362000 -0.362000
v 0.305000 0.362000 -0.362000
v -0.286000 0.362000 0.381000
v 0.305000 0.362000 -0.362000
v 0.305000 0.362000 0.381000
v 0.305000 -0.362000 -0.362000
v -0.286000 -0.362000 -0.362000
v -0.286000 -0.362000 0.381000
v 0.305000 -0.362000 -0.362000
v -0.286000 -0.362000 0.381000
v 0.305000 -0.362000 0.381000
v -0.292304 -0.362018 0.380000
v -0.292304 -0.362018 0.382000
v -0.292304 0.362042 0.382000
v -0.292304 -0.362018 0.380000
v -0.292304 0.362042 0.382000
v -0.292304 0.362042 0.380000
v -0.265316 0.362042 0.382000
v -0.265316 0.362042 0.380000
v -0.266771 0.362113 0.380000
v -0.265316 0.362042 0.382000
v -0.266771 0.362113 0.380000
v -0.266771 0.362113 0.382000
v -0.265316 0.362042 0.380000
v -0.265316 0.362042 0.382000
v -0.265316 -0.362018 0.382000
v -0.265316 0.362042 0.380000
v -0.265316 -0.362018 0.382000
v -0.265316 -0.362018 0.380000
v -0.265316 -0.362018 0.382000
v -0.292304 -0.362018 0.382000
v -0.290766 -0.362113 0.382000
v -0.265316 -0.362018 0.382000
v -0.290766 -0.362113 0.382000
v -0.266854 -0.362113 0.382000
v -0.292304 0.362042 0.380000
v -0.265316 0.362042 0.380000
v -0.265316 -0.362018 0.380000
v -0.292304 0.362042 0.380000
v -0.265316 -0.362018 0.380000
v -0.292304 -0.362018 0.380000
v -0.265316 0.362042 0.382000
v -0.292304 0.362042 0.382000
v -0.292304 -0.362018 0.382000
v -0.265316 0.362042 0.382000
v -0.292304 -0.362018 0.382000
v -0.265316 -0.362018 0.382000
v -0.265316 -0.362018 0.380000
v -0.265316 -0.362018 0.382000
v -0.266854 -0.362113 0.382000
v -0.265316 -0.362018 0.380000
v -0.266854 -0.362113 0.382000
v -0.266854 -0.362113 0.380000
v -0.292304 -0.362018 0.382000
v -0.292304 -0.362018 0.380000
v -0.290766 -0.362113 0.380000
v -0.292304 -0.362018 0.382000
v -0.290766 -0.362113 0.380000
v -0.290766 -0.362113 0.382000
v -0.292304 -0.362018 0.380000
v -0.265316 -0.362018 0.380000
v -0.266854 -0.362113 0.380000
v -0.292304 -0.362018 0.380000
v -0.266854 -0.362113 0.380000
v -0.290766 -0.362113 0.380000
v -0.290766 -0.362113 0.380000
v -0.266854 -0.362113 0.380000
v -0.266854 -0.380979 0.380000
v -0.290766 -0.362113 0.380000
v -0.266854 -0.380979 0.380000
v -0.290766 -0.380979 0.380000
v -0.266854 -0.380979 0.380000
v -0.266854 -0.380979 0.382000
v -0.290766 -0.380979 0.382000
v -0.266854 -0.380979 0.380000
v -0.290766 -0.380979 0.382000
v -0.290766 -0.380979 0.380000
v -0.290766 -0.362113 0.382000
v -0.290766 -0.362113 0.380000
v -0.290766 -0.380979 0.380000
v -0.290766 -0.362113 0.382000
v -0.290766 -0.380979 0.380000
v -0.290766 -0.380979 0.382000
v -0.266854 -0.362113 0.382000
v -0.290766 -0.362113 0.382000
v -0.290766 -0.380979 0.382000
v -0.266854 -0.362113 0.382000
v -0.290766 -0.380979 0.382000
v -0.266854 -0.380979 0.382000
v -0.266854 -0.362113 0.380000
v -0.266854 -0.362113 0.382000
v -0.266854 -0.380979 0.382000
v -0.266854 -0.362113 0.380000
v -0.266854 -0.380979 0.382000
v -0.266854 -0.380979 0.380000
v -0.266771 0.362113 0.382000
v -0.266771 0.362113 0.380000
v -0.266771 0.381007 0.380000
v -0.266771 0.362113 0.382000
v -0.266771 0.381007 0.380000
v -0.266771 0.381007 0.382000
v -0.265316 0.362042 0.380000
v -0.292304 0.362042 0.380000
v -0.290849 0.362113 0.380000
v -0.265316 0.362042 0.380000
v -0.290849 0.362113 0.380000
v -0.266771 0.362113 0.380000
v -0.292304 0.362042 0.382000
v -0.265316 0.362042 0.382000
v -0.266771 0.362113 0.382000
v -0.292304 0.362042 0.382000
v -0.266771 0.362113 0.382000
v -0.290849 0.362113 0.382000
v -0.292304 0.362042 0.380000
v -0.292304 0.362042 0.382000
v -0.290849 0.362113 0.382000
v -0.292304 0.362042 0.380000
v -0.290849 0.362113 0.382000
v -0.290849 0.362113 0.380000
v -0.290849 0.381007 0.380000
v -0.290849 0.381007 0.382000
v -0.266771 0.381007 0.382000
v -0.290849 0.381007 0.380000
v -0.266771 0.381007 0.382000
v -0.266771 0.381007 0.380000
v -0.266771 0.362113 0.380000
v -0.290849 0.362113 0.380000
v -0.290849 0.381007 0.380000
v -0.266771 0.362113 0.380000
v -0.290849 0.381007 0.380000
v -0.266771 0.381007 0.380000
v -0.290849 0.362113 0.382000
v -0.266771 0.362113 0.382000
v -0.266771 0.381007 0.382000
v -0.290849 0.362113 0.382000
v -0.266771 0.381007 0.382000
v -0.290849 0.381007 0.382000
v -0.290849 0.362113 0.380000
v -0.290849 0.362113 0.382000
v -0.290849 0.381007 0.382000
v -0.290849 0.362113 0.380000
v -0.290849 0.381007 0.382000
v -0.290849 0.381007 0.380000
v 0.271506 -0.362018 0.380000
v 0.271506 -0.362018 0.382000
v 0.271506 0.362042 0.382000
v 0.271506 -0.362018 0.380000
v 0.271506 0.362042 0.382000
v 0.271506 0.362042 0.380000
v 0.298494 0.362042 0.382000
v 0.298494 0.362042 0.380000
v 0.297039 0.362113 0.380000
v 0.298494 0.362042 0.382000
v 0.297039 0.362113 0.380000
v 0.297039 0.362113 0.382000
v 0.298494 0.362042 0.380000
v 0.298494 0.362042 0.382000
v 0.298494 -0.362018 0.382000
v 0.298494 0.362042 0.380000
v 0.298494 -0.362018 0.382000
v 0.298494 -0.362018 0.380000
v 0.298494 -0.362018 0.382000
v 0.271506 -0.362018 0.382000
v 0.273044 -0.362113 0.382000
v 0.298494 -0.362018 0.382000
v 0.273044 -0.362113 0.382000
v 0.296956 -0.362113 0.382000
v 0.271506 0.362042 0.380000
v 0.298494 0.362042 0.380000
v 0.298494 -0.362018 0.380000
v 0.271506 0.362042 0.380000
v 0.298494 -0.362018 0.380000
v 0.271506 -0.362018 0.380000
v 0.298494 0.362042 0.382000
v 0.271506 0.362042 0.382000
v 0.271506 -0.362018 0.382000
v 0.298494 0.362042 0.382000
v 0.271506 -0.362018 0.382000
v 0.298494 -0.362018 0.382000
v 0.298494 -0.362018 0.380000
v 0.298494 -0.362018 0.382000
v 0.296956 -0.362113 0.382000
v 0.298494 -0.362018 0.380000
v 0.296956 -0.362113 0.382000
v 0.296956 -0.362113 0.380000
v 0.271506 -0.362018 0.382000
v 0.271506 -0.362018 0.380000
v 0.273044 -0.362113 0.380000
v 0.271506 -0.362018 0.382000
v 0.273044 -0.362113 0.380000
v 0.273044 -0.362113 0.382000
v 0.271506 -0.362018 0.380000
v 0.298494 -0.362018 0.380000
v 0.296956 -0.362113 0.380000
v 0.271506 -0.362018 0.380000
v 0.296956 -0.362113 0.380000
v 0.273044 -0.362113 0.380000
v 0.273044 -0.362113 0.380000
v 0.296956 -0.362113 0.380000
v 0.296956 -0.380979 0.380000
v 0.273044 -0.362113 0.380000
v 0.296956 -0.380979 0.380000
v 0.273044 -0.380979 0.380000
v 0.296956 -0.380979 0.380000
v 0.296956 -0.380979 0.382000
v 0.273044 -0.380979 0.382000
v 0.296956 -0.380979 0.380000
v 0.273044 -0.380979 0.382000
v 0.273044 -0.380979 0.380000
v 0.273044 -0.362113 0.382000
v 0.273044 -0.362113 0.380000
v 0.273044 -0.380979 0.380000
v 0.273044 -0.362113 0.382000
v 0.273044 -0.380979 0.380000
v 0.273044 -0.380979 0.382000
v 0.296956 -0.362113 0.382000
v 0.273044 -0.362113 0.382000
v 0.273044 -0.380979 0.382000
v 0.296956 -0.362113 0.382000
v 0.273044 -0.380979 0.382000
v 0.296956 -0.380979 0.382000
v 0.296956 -0.362113 0.380000
v 0.296956 -0.362113 0.382000
v 0.296956 -0.380979 0.382000
v 0.296956 -0.362113 0.380000
v 0.296956 -0.380979 0.382000
v 0.296956 -0.380979 0.380000
v 0.297039 0.362113 0.382000
v 0.297039 0.362113 0.380000
v 0.297039 0.381007 0.380000
v 0.297039 0.362113 0.382000
v 0.297039 0.381007 0.380000
v 0.297039 0.381007 0.382000
v 0.298494 0.362042 0.380000
v 0.271506 0.362042 0.380000
v 0.272961 0.362113 0.380000
v 0.298494 0.362042 0.380000
v 0.272961 0.362113 0.380000
v 0.297039 0.362113 0.380000
v 0.271506 0.362042 0.382000
v 0.298494 0.362042 0.382000
v 0.297039 0.362113 0.382000
v 0.271506 0.362042 0.382000
v 0.297039 0.362113 0.382000
v 0.272961 0.362113 0.382000
v 0.271506 0.362042 0.380000
v 0.271506 0.362042 0.382000
v 0.272961 0.362113 0.382000
v 0.271506 0.362042 0.380000
v 0.272961 0.362113 0.382000
v 0.272961 0.362113 0.380000
v 0.272961 0.381007 0.380000
v 0.272961 0.381007 0.382000
v 0.297039 0.381007 0.382000
v 0.272961 0.381007 0.380000
v 0.297039 0.381007 0.382000
v 0.297039 0.381007 0.380000
v 0.297039 0.362113 0.380000
v 0.272961 0.362113 0.380000
v 0.272961 0.381007 0.380000
v 0.297039 0.362113 0.380000
v 0.272961 0.381007 0.380000
v 0.297039 0.381007 0.380000
v 0.272961 0.362113 0.382000
v 0.297039 0.362113 0.382000
v 0.297039 0.381007 0.382000
v 0.272961 0.362113 0.382000
v 0.297039 0.381007 0.382000
v 0.272961 0.381007 0.382000
v 0.272961 0.362113 0.380000
v 0.272961 0.362113 0.382000
v 0.272961 0.381007 0.382000
v 0.272961 0.362113 0.380000
v 0.272961 0.381007 0.382000
v 0.272961 0.381007 0.380000
vn -1.0000 0.0000 0.0000
vn 0.0000 1.0000 0.0000
vn 1.0000 0.0000 0.0000
vn 0.0000 -1.0000 0.0000
vn 0.0000 0.0000 -1.0000
vn 0.0000 -0.0000 1.0000
vn 0.0487 0.9988 0.0000
vn 0.0763 0.9971 0.0000
vn 0.0617 -0.9981 0.0000
vn 0.0964 -0.9953 -0.0000
vn -0.0617 -0.9981 0.0000
vn -0.0964 -0.9953 0.0000
vn -0.0487 0.9988 0.0000
vn -0.0763 0.9971 -0.0000
usemtl None
s 1
f 1//1 2//1 3//1
f 4//1 5//1 6//1
f 7//2 8//2 9//2
f 10//2 11//2 12//2
f 13//3 14//3 15//3
f 16//3 17//3 18//3
f 19//4 20//4 21//4
f 22//4 23//4 24//4
f 25//5 26//5 27//5
f 28//5 29//5 30//5
f 31//6 32//6 33//6
f 34//6 35//6 36//6
f 37//3 38//3 39//3
f 40//3 41//3 42//3
f 43//5 44//5 45//5
f 46//5 47//5 48//5
f 49//6 50//6 51//6
f 52//6 53//6 54//6
f 55//6 56//6 57//6
f 58//6 59//6 60//6
f 61//6 62//6 63//6
f 64//6 65//6 66//6
f 67//3 68//3 69//3
f 70//3 71//3 72//3
f 73//3 74//3 75//3
f 76//3 77//3 78//3
f 79//3 80//3 81//3
f 82//3 83//3 84//3
f 85//4 86//4 87//4
f 88//4 89//4 90//4
f 91//1 92//1 93//1
f 94//1 95//1 96//1
f 97//2 98//2 99//2
f 100//2 101//2 102//2
f 103//6 104//6 105//6
f 106//6 107//6 108//6
f 109//4 110//4 111//4
f 112//4 113//4 114//4
f 115//2 116//2 117//2
f 118//2 119//2 120//2
f 121//1 122//1 123//1
f 124//1 125//1 126//1
f 127//7 128//8 129//7
f 130//7 131//7 132//8
f 133//3 134//3 135//3
f 136//3 137//3 138//3
f 139//6 140//6 141//6
f 142//6 143//6 144//6
f 145//5 146//5 147//5
f 148//5 149//5 150//5
f 151//6 152//6 153//6
f 154//6 155//6 156//6
f 157//9 158//10 159//9
f 160//9 161//9 162//10
f 163//11 164//12 165//11
f 166//11 167//11 168//12
f 169//5 170//5 171//5
f 172//5 173//5 174//5
f 175//5 176//5 177//5
f 178//5 179//5 180//5
f 181//4 182//4 183//4
f 184//4 185//4 186//4
f 187//1 188//1 189//1
f 190//1 191//1 192//1
f 193//6 194//6 195//6
f 196//6 197//6 198//6
f 199//3 200//3 201//3
f 202//3 203//3 204//3
f 205//3 206//3 207//3
f 208//3 209//3 210//3
f 211//5 212//5 213//5
f 214//5 215//5 216//5
f 217//6 218//6 219//6
f 220//6 221//6 222//6
f 223//13 224//14 225//13
f 226//13 227//13 228//14
f 229//2 230//2 231//2
f 232//2 233//2 234//2
f 235//5 236//5 237//5
f 238//5 239//5 240//5
f 241//6 242//6 243//6
f 244//6 245//6 246//6
f 247//1 248//1 249//1
f 250//1 251//1 252//1
f 253//1 254//1 255//1
f 256//1 257//1 258//1
f 259//7 260//8 261//7
f 262//7 263//7 264//8
f 265//3 266//3 267//3
f 268//3 269//3 270//3
f 271//6 272//6 273//6
f 274//6 275//6 276//6
f 277//5 278//5 279//5
f 280//5 281//5 282//5
f 283//6 284//6 285//6
f 286//6 287//6 288//6
f 289//9 290//10 291//9
f 292//9 293//9 294//10
f 295//11 296//12 297//11
f 298//11 299//11 300//12
f 301//5 302//5 303//5
f 304//5 305//5 306//5
f 307//5 308//5 309//5
f 310//5 311//5 312//5
f 313//4 314//4 315//4
f 316//4 317//4 318//4
f 319//1 320//1 321//1
f 322//1 323//1 324//1
f 325//6 326//6 327//6
f 328//6 329//6 330//6
f 331//3 332//3 333//3
f 334//3 335//3 336//3
f 337//3 338//3 339//3
f 340//3 341//3 342//3
f 343//5 344//5 345//5
f 346//5 347//5 348//5
f 349//6 350//6 351//6
f 352//6 353//6 354//6
f 355//13 356//14 357//13
f 358//13 359//13 360//14
f 361//2 362//2 363//2
f 364//2 365//2 366//2
f 367//5 368//5 369//5
f 370//5 371//5 372//5
f 373//6 374//6 375//6
f 376//6 377//6 378//6
f 379//1 380//1 381//1
f 382//1 383//1 384//1
