####
#
# OBJ File Generated by Meshlab
#
####
# Object table_top.obj
#
# Vertices: 36
# Faces: 12
#
####
vn 0.000000 0.000000 -0.785398
v 0.100000 0.100000 -0.020000
vn 0.000000 0.000000 -1.570796
v 0.100000 -0.100000 -0.020000
vn 0.000000 0.000000 -0.785398
v -0.100000 -0.100000 -0.020000
vn 0.000000 0.000000 -0.785398
v 0.100000 0.100000 -0.020000
vn 0.000000 0.000000 -0.785398
v -0.100000 -0.100000 -0.020000
vn 0.000000 0.000000 -1.570796
v -0.100000 0.100000 -0.020000
vn 0.000000 0.000000 0.785398
v 0.100000 0.100000 0.020000
vn 0.000000 0.000000 1.570796
v -0.100000 0.100000 0.020000
vn 0.000000 0.000000 0.785398
v -0.100000 -0.100000 0.020000
vn 0.000000 0.000000 0.785398
v 0.100000 0.100000 0.020000
vn 0.000000 0.000000 0.785398
v -0.100000 -0.100000 0.020000
vn 0.000000 0.000000 1.570796
v 0.100000 -0.100000 0.020000
vn 1.373401 0.000000 0.000000
v 0.100000 0.100000 -0.020000
vn 1.570796 0.000000 0.000000
v 0.100000 0.100000 0.020000
vn 0.197396 0.000000 0.000000
v 0.100000 -0.100000 0.020000
vn 0.197396 0.000000 0.000000
v 0.100000 0.100000 -0.020000
vn 1.373401 0.000000 0.000000
v 0.100000 -0.100000 0.020000
vn 1.570796 0.000000 0.000000
v 0.100000 -0.100000 -0.020000
vn 0.000000 -1.373401 0.000000
v 0.100000 -0.100000 -0.020000
vn 0.000000 -1.570796 0.000000
v 0.100000 -0.100000 0.020000
vn 0.000000 -0.197396 0.000000
v -0.100000 -0.100000 0.020000
vn 0.000000 -0.197396 0.000000
v 0.100000 -0.100000 -0.020000
vn 0.000000 -1.373401 0.000000
v -0.100000 -0.100000 0.020000
vn 0.000000 -1.570796 0.000000
v -0.100000 -0.100000 -0.020000
vn -1.373401 0.000000 0.000000
v -0.100000 -0.100000 -0.020000
vn -1.570796 0.000000 0.000000
v -0.100000 -0.100000 0.020000
vn -0.197396 0.000000 0.000000
v -0.100000 0.100000 0.020000
vn -0.197396 0.000000 0.000000
v -0.100000 -0.100000 -0.020000
vn -1.373401 0.000000 0.000000
v -0.100000 0.100000 0.020000
vn -1.570796 0.000000 0.000000
v -0.100000 0.100000 -0.020000
vn 0.000000 1.373401 0.000000
v 0.100000 0.100000 0.020000
vn 0.000000 1.570796 0.000000
v 0.100000 0.100000 -0.020000
vn 0.000000 0.197396 0.000000
v -0.100000 0.100000 -0.020000
vn 0.000000 0.197396 0.000000
v 0.100000 0.100000 0.020000
vn 0.000000 1.373401 0.000000
v -0.100000 0.100000 -0.020000
vn 0.000000 1.570796 0.000000
v -0.100000 0.100000 0.020000
# 36 vertices, 0 vertices normals

f 1//1 2//2 3//3
f 4//4 5//5 6//6
f 7//7 8//8 9//9
f 10//10 11//11 12//12
f 13//13 14//14 15//15
f 16//16 17//17 18//18
f 19//19 20//20 21//21
f 22//22 23//23 24//24
f 25//25 26//26 27//27
f 28//28 29//29 30//30
f 31//31 32//32 33//33
f 34//34 35//35 36//36
# 12 faces, 0 coords texture

# End of File