####
#
# OBJ File Generated by Meshlab
#
####
# Object ball.obj
#
# Vertices: 52
# Faces: 100
#
####
vn -2.736881 -3.135792 3.650102
v -0.019796 -0.021793 0.025077
vn -0.283305 -4.867286 2.817169
v -0.001758 -0.033065 0.019653
vn 2.979527 -4.359581 2.047262
v 0.020129 -0.029636 0.013791
vn 0.804378 -2.960452 4.640355
v 0.006077 -0.020829 0.032099
vn 2.600202 -5.129210 -0.151066
v 0.017524 -0.034012 -0.000871
vn 3.758670 -2.542891 3.605391
v 0.024696 -0.016773 0.023675
vn 3.350138 -2.348826 -4.057188
v 0.022760 -0.016363 -0.025808
vn 4.616093 -0.051791 -3.293688
v 0.031391 -0.000222 -0.022368
vn 4.777335 -2.855832 -0.821087
v 0.032700 -0.019580 -0.005914
vn 4.124402 0.780002 3.688572
v 0.028253 0.004440 0.026000
vn 5.237640 -1.233876 1.641103
v 0.036055 -0.008321 0.010948
vn -0.536476 2.683864 -5.003013
v -0.004085 0.018586 -0.033546
vn -0.856318 4.975262 -2.886957
v -0.005180 0.032627 -0.019173
vn -0.011274 5.697695 0.033894
v 0.000000 0.038416 0.000000
vn 1.548117 5.164749 -2.296017
v 0.010190 0.033213 -0.015789
vn 1.505271 3.337274 -4.546393
v 0.009111 0.022589 -0.029360
vn 3.488779 4.461930 -0.016972
v 0.023662 0.030453 -0.000281
vn 4.479890 2.809529 2.347029
v 0.029739 0.018643 0.014599
vn 3.529057 3.454826 -2.921593
v 0.023122 0.024124 -0.019011
vn 5.070533 2.206106 -2.001021
v 0.033078 0.013633 -0.012823
vn 5.444608 1.876673 0.673634
v 0.035923 0.012335 0.003388
vn -0.599094 -0.459006 -5.500641
v -0.004844 -0.003207 -0.038287
vn 2.271039 -0.186382 5.263724
v 0.015817 -0.001351 0.034834
vn -2.690078 -5.009366 0.457029
v -0.018229 -0.033695 0.002338
vn -0.918321 -0.276341 5.393467
v -0.006380 -0.001299 0.038407
vn 0.078866 -5.696169 0.033567
v -0.000000 -0.038416 0.000000
vn 2.968390 -4.177267 -2.745841
v 0.019445 -0.027444 -0.018293
vn -3.955125 -0.017691 4.199929
v -0.026503 0.000775 0.027558
vn -0.084924 -2.821173 -4.648463
v -0.000428 -0.021167 -0.032900
vn -4.899406 -1.568905 2.476551
v -0.033086 -0.010994 0.016445
vn -4.386741 -3.847526 0.392798
v -0.028767 -0.024781 0.002346
vn -1.572935 -5.068572 -2.399193
v -0.010190 -0.033213 -0.015789
vn -5.603407 -1.710843 0.396545
v -0.035923 -0.012335 0.003388
vn -5.121485 -2.108362 -1.992761
v -0.033078 -0.013633 -0.012823
vn -4.617683 2.217114 2.765672
v -0.030245 0.014162 0.018490
vn -5.411799 1.477013 1.269662
v -0.035908 0.010364 0.008307
vn -3.345715 -3.526425 -2.917672
v -0.023122 -0.024124 -0.019011
vn -2.331253 2.479513 4.560584
v -0.016663 0.016228 0.030719
vn -4.758959 3.023074 -0.830718
v -0.032700 0.019580 -0.005914
vn -0.724280 4.833078 3.122172
v -0.004153 0.031744 0.020635
vn -3.019570 4.383113 2.032065
v -0.020129 0.029636 0.013791
vn -3.583183 -0.626529 -4.223618
v -0.024926 -0.004220 -0.029145
vn 0.980673 2.652054 4.860205
v 0.006646 0.019040 0.032864
vn -2.615672 5.124959 -0.152392
v -0.017524 0.034012 -0.000871
vn -5.257881 0.621508 -1.793234
v -0.036782 0.004415 -0.011453
vn -3.251458 3.661318 -2.867412
v -0.021608 0.025584 -0.018953
vn -2.902887 1.895444 -4.660213
v -0.017210 0.012967 -0.031406
vn 0.935884 -4.814260 -3.069167
v 0.005924 -0.031447 -0.021234
vn 5.836606 -0.109171 -0.822667
v 0.037698 0.000189 -0.004997
vn 2.465987 0.508544 -4.973077
v 0.017883 0.003738 -0.033870
vn 2.312305 4.042447 3.409233
v 0.013926 0.027960 0.022263
vn 1.881975 5.250778 1.735332
v 0.012152 0.034078 0.012286
# 52 vertices, 0 vertices normals

f 4//4 25//25 1//1
f 4//4 1//1 2//2
f 2//2 26//26 3//3
f 3//3 26//26 5//5
f 4//4 2//2 3//3
f 25//25 4//4 23//23
f 6//6 4//4 3//3
f 5//5 27//27 9//9
f 3//3 5//5 9//9
f 23//23 4//4 6//6
f 11//11 3//3 9//9
f 9//9 27//27 7//7
f 6//6 3//3 11//11
f 9//9 7//7 8//8
f 23//23 6//6 10//10
f 10//10 6//6 11//11
f 8//8 7//7 50//50
f 11//11 9//9 49//49
f 49//49 9//9 8//8
f 21//21 11//11 49//49
f 46//46 12//12 47//47
f 47//47 12//12 22//22
f 13//13 12//12 46//46
f 44//44 14//14 13//13
f 13//13 16//16 12//12
f 14//14 15//15 13//13
f 15//15 16//16 13//13
f 17//17 15//15 14//14
f 52//52 17//17 14//14
f 15//15 19//19 16//16
f 17//17 19//19 15//15
f 51//51 18//18 52//52
f 18//18 17//17 52//52
f 16//16 50//50 12//12
f 19//19 50//50 16//16
f 50//50 22//22 12//12
f 51//51 10//10 18//18
f 17//17 20//20 19//19
f 18//18 21//21 17//17
f 8//8 50//50 19//19
f 43//43 23//23 10//10
f 17//17 21//21 20//20
f 20//20 8//8 19//19
f 21//21 49//49 20//20
f 10//10 11//11 18//18
f 18//18 11//11 21//21
f 27//27 5//5 48//48
f 1//1 24//24 2//2
f 26//26 48//48 5//5
f 7//7 29//29 50//50
f 28//28 1//1 25//25
f 27//27 29//29 7//7
f 29//29 22//22 50//50
f 26//26 32//32 48//48
f 25//25 38//38 28//28
f 48//48 29//29 27//27
f 1//1 31//31 24//24
f 28//28 30//30 1//1
f 24//24 32//32 26//26
f 30//30 31//31 1//1
f 32//32 29//29 48//48
f 30//30 33//33 31//31
f 31//31 37//37 24//24
f 24//24 37//37 32//32
f 32//32 37//37 29//29
f 33//33 34//34 31//31
f 31//31 34//34 37//37
f 38//38 35//35 28//28
f 28//28 35//35 30//30
f 36//36 33//33 30//30
f 35//35 36//36 30//30
f 36//36 45//45 33//33
f 33//33 45//45 34//34
f 25//25 43//43 38//38
f 34//34 42//42 37//37
f 37//37 42//42 29//29
f 38//38 41//41 35//35
f 35//35 41//41 36//36
f 42//42 22//22 29//29
f 36//36 39//39 45//45
f 45//45 42//42 34//34
f 41//41 39//39 36//36
f 43//43 40//40 38//38
f 40//40 41//41 38//38
f 41//41 44//44 39//39
f 43//43 51//51 40//40
f 39//39 46//46 45//45
f 40//40 14//14 41//41
f 14//14 44//44 41//41
f 25//25 23//23 43//43
f 44//44 46//46 39//39
f 46//46 47//47 45//45
f 45//45 47//47 42//42
f 51//51 52//52 40//40
f 52//52 14//14 40//40
f 47//47 22//22 42//42
f 44//44 13//13 46//46
f 26//26 2//2 24//24
f 49//49 8//8 20//20
f 10//10 51//51 43//43
# 100 faces, 0 coords texture

# End of File